<svg width="390" height="216" viewBox="0 0 390 216" fill="none" xmlns="http://www.w3.org/2000/svg">
<mask id="mask0_402_9887" style="mask-type:alpha" maskUnits="userSpaceOnUse" x="0" y="1" width="390" height="215">
<rect y="1" width="390" height="215" fill="#D9D9D9"/>
</mask>
<g mask="url(#mask0_402_9887)">
<path d="M256.588 118.024C258.284 100.273 273.272 86.5391 291.904 86.2435C310.517 85.9512 325.499 100.605 327.214 118.024H336.838C335.034 95.1528 315.785 77.277 291.901 76.9007C268.036 76.5245 248.79 95.6063 246.967 118.024H256.588Z" fill="#A5EEF2"/>
<path d="M246.957 118.024C248.701 95.1561 268.029 77.2098 291.901 76.9007C315.76 76.5916 335.079 95.529 336.841 118.024H346.466C344.636 90.0463 321.016 67.9342 291.898 67.558C262.799 67.1817 239.181 90.52 237.336 118.024H246.957Z" fill="#D4FF5F"/>
<path d="M237.699 118.024C239.379 90.1606 262.935 68.0551 291.901 67.7427C320.857 67.4303 344.407 90.5603 346.103 118.024H355.702C353.952 85.0642 326.1 58.7662 291.901 58.3966C257.714 58.0271 229.862 85.5446 228.1 118.024H237.699Z" fill="#FBFF5C"/>
<path d="M229.181 118.024C230.448 85.259 258.016 58.9576 291.904 58.6351C325.785 58.316 353.351 85.6958 354.623 118.024H364.222C362.902 80.1694 331.013 49.6653 291.904 49.2924C252.795 48.9228 220.912 80.6834 219.586 118.024H229.181Z" fill="#FFCC5A"/>
<path d="M221.008 118.024C221.905 80.6028 253.33 50.3271 291.904 49.9979C330.475 49.672 361.897 81.0698 362.797 118.024H372.396C371.451 75.5199 335.696 41.0281 291.904 40.6552C248.109 40.2856 212.344 76.0507 211.396 118.024H221.008Z" fill="#FFD2ED"/>
<path d="M0 24.0955C16.5506 19.5843 35.412 29.4474 41.2972 45.5608C47.8694 41.5445 56.3297 40.7806 63.5216 43.5479C70.7087 46.3199 76.469 52.5606 78.6501 59.9495C96.5651 54.5976 117.68 67.6988 120.831 86.1326H0V24.0955Z" fill="#A3D800"/>
<path d="M0 38.5083C6.9181 36.2263 15.191 38.3257 20.8936 42.8657C26.5914 47.4057 29.7911 54.9099 29.1137 62.1643C34.6193 56.1398 42.5751 52.0322 50.7279 52.4261C58.8807 52.8201 66.899 58.3161 69.0177 66.1999C78.3619 61.8761 90.7712 66.2527 95.3304 75.4817C95.3304 75.4817 0 75.1021 0 75.7651C0 77.1103 0 38.5083 0 38.5083Z" fill="#C0EF4D"/>
<path d="M390.017 46.2334C382.859 40.9871 372.285 42.3131 364.723 46.9588C357.161 51.6045 352.179 59.6468 349.47 68.0974C332.804 61.751 311.853 71.3931 305.828 88.1743C296.469 84.5471 285.203 85.4743 277.195 91.5181C274.014 93.9154 271.742 96.8796 271.742 96.8796C271.742 96.8796 268.168 95.938 265.722 96.0197C257.348 96.3031 249.196 102.039 247.514 110.25H390.017V46.2334Z" fill="#A3D800"/>
<path d="M390.017 67.9245C385.42 64.8546 378.694 66.4351 374.336 69.8462C369.984 73.2572 367.26 78.2872 364.665 83.1683C357.243 78.4842 347.779 77.1726 339.366 79.6708C330.954 82.169 323.733 88.4289 320.068 96.3992C307.755 87.862 289.35 89.6828 278.948 100.468V108.866L390.017 110.24V67.9245V67.9245Z" fill="#C0EF4D"/>
<path d="M16.4497 84.6048C115.845 76.01 216.863 94.6408 300.889 135.155V165.273H16.4497V84.6048Z" fill="#CCFF66"/>
<path d="M16.4497 90.6582C37.1512 101.141 94.1294 130.384 223.527 118.057L223.407 148.66L16.4401 148.958L16.4497 90.6582Z" fill="#CCFF66"/>
<path d="M16.4497 146.925C85.5442 122.866 162.422 112.681 238.242 106.589C288.629 102.544 339.722 100.209 388.523 110.404V165.374L16.4497 165.278V146.925V146.925Z" fill="#DFFF7B"/>
<path d="M108.047 131.355C104.502 143.212 103.752 155.89 105.876 168.083" stroke="#84A800" stroke-width="2" stroke-miterlimit="10"/>
<path d="M138.016 176.039C143.887 165.46 146.971 153.344 146.87 141.247C146.851 139.167 146.601 136.808 144.944 135.554C144.122 134.934 143.07 134.694 142.042 134.675C137.761 134.598 134.283 137.937 131.338 141.045C127.49 145.105 123.642 149.164 119.794 153.224C119.789 147.771 119.155 142.318 117.906 137.009C117.588 135.659 117.041 134.117 115.72 133.714C114.254 133.267 112.847 134.511 111.915 135.727C107.403 141.602 105.66 149.078 104.026 156.303C102.234 144.595 100.13 132.931 97.7229 121.333C97.156 118.595 95.3977 115.092 92.7121 115.861C90.6991 116.438 90.1947 119.008 90.1034 121.098C89.5894 132.743 90.555 144.451 92.9764 155.852C88.9504 148.852 84.9197 141.852 80.8937 134.852C79.808 132.969 78.6742 131.028 76.9062 129.76C75.1382 128.496 72.5536 128.098 70.8336 129.433C66.9422 131.811 76.3201 161.506 84.9004 175.169L138.016 176.039Z" fill="#A3D800"/>
<path d="M79.9953 152.753C81.6384 151.47 83.9492 153.003 85.3953 154.502C88.1625 157.379 90.7424 160.435 93.1157 163.644C92.6593 157.922 93.2022 152.124 94.7155 146.584C94.8404 146.123 94.9941 145.638 95.3689 145.345C95.9742 144.874 96.8678 145.124 97.5164 145.537C99.9329 147.069 100.716 150.163 101.465 152.926C102.936 158.34 105.04 163.586 107.716 168.52C107.375 162.611 109.474 156.601 113.418 152.186C114.053 151.475 115.009 150.745 115.873 151.153C116.373 151.388 116.637 151.936 116.853 152.45C118.588 156.558 119.693 160.935 120.111 165.374C122.916 158.806 128.11 153.296 134.495 150.101C136.027 149.332 138.059 148.761 139.313 149.933C139.986 150.562 140.212 151.528 140.38 152.431C141.763 159.858 138.924 168.751 137.089 176.082C122.835 177.346 111.305 174.742 97.0359 175.362C92.4431 175.559 88.5324 175.578 85.8421 171.211C84.7035 169.352 78.1217 154.213 79.9953 152.753Z" fill="#90C400"/>
<path d="M94.0525 123.644C94.7299 140.406 98.1649 157.058 104.18 172.719" stroke="white" stroke-miterlimit="10" stroke-linecap="round" stroke-linejoin="round"/>
<path d="M114.187 139.522C112.871 150.072 111.045 160.56 108.715 170.932" stroke="white" stroke-miterlimit="10" stroke-linecap="round" stroke-linejoin="round"/>
<path d="M141.576 140.502C134.989 151.903 127.586 162.827 119.433 173.166" stroke="white" stroke-miterlimit="10" stroke-linecap="round" stroke-linejoin="round"/>
<path d="M75.4985 135.126C79.2506 146.94 84.1462 158.388 90.0938 169.26" stroke="white" stroke-miterlimit="10" stroke-linecap="round"/>
<path d="M322.153 138.436C325.698 150.293 326.448 162.972 324.324 175.165" stroke="#84A800" stroke-width="2" stroke-miterlimit="10"/>
<path d="M292.184 183.121C286.313 172.542 283.229 160.425 283.33 148.328C283.349 146.248 283.599 143.889 285.256 142.635C286.078 142.016 287.13 141.775 288.158 141.756C292.439 141.679 295.917 145.018 298.862 148.127C302.71 152.186 306.558 156.246 310.406 160.305C310.411 154.852 311.045 149.4 312.294 144.091C312.612 142.746 313.159 141.199 314.48 140.795C315.946 140.348 317.353 141.593 318.285 142.808C322.797 148.684 324.54 156.159 326.174 163.385C327.966 151.677 330.07 140.012 332.477 128.415C333.044 125.676 334.802 122.174 337.488 122.943C339.501 123.519 340.005 126.089 340.097 128.179C340.611 139.825 339.645 151.533 337.224 162.933C341.25 155.933 345.28 148.934 349.306 141.934C350.392 140.051 351.526 138.11 353.294 136.841C355.062 135.578 357.646 135.179 359.366 136.515C363.258 138.893 353.88 168.588 345.3 182.251L292.184 183.121Z" fill="#A3D800"/>
<path d="M350.205 159.834C348.562 158.552 346.251 160.084 344.805 161.583C342.038 164.461 339.458 167.516 337.084 170.726C337.541 165.004 336.998 159.205 335.485 153.666C335.36 153.205 335.206 152.719 334.831 152.426C334.226 151.955 333.332 152.205 332.684 152.618C330.267 154.151 329.484 157.245 328.735 160.007C327.265 165.427 325.16 170.668 322.484 175.602C322.825 169.693 320.726 163.683 316.782 159.268C316.148 158.557 315.191 157.826 314.327 158.235C313.827 158.47 313.563 159.018 313.347 159.532C311.612 163.639 310.507 168.016 310.089 172.455C307.284 165.888 302.09 160.377 295.705 157.182C294.173 156.414 292.141 155.842 290.887 157.014C290.214 157.644 289.988 158.609 289.82 159.513C288.437 166.94 291.276 175.833 293.111 183.164C307.365 184.427 318.896 181.823 333.164 182.443C337.757 182.64 341.668 182.659 344.358 178.292C345.497 176.433 352.074 161.295 350.205 159.834Z" fill="#90C400"/>
<path d="M336.148 130.726C335.47 147.492 332.035 164.139 326.02 179.801" stroke="white" stroke-miterlimit="10" stroke-linecap="round" stroke-linejoin="round"/>
<path d="M316.013 146.604C317.329 157.154 319.155 167.641 321.485 178.014" stroke="white" stroke-miterlimit="10" stroke-linecap="round" stroke-linejoin="round"/>
<path d="M288.624 147.588C295.211 158.989 302.614 169.914 310.767 180.252" stroke="white" stroke-miterlimit="10" stroke-linecap="round" stroke-linejoin="round"/>
<path d="M354.701 142.208C350.949 154.021 346.054 165.47 340.106 176.342" stroke="white" stroke-miterlimit="10" stroke-linecap="round"/>
<path d="M173.034 146.608C176.58 158.465 177.329 171.143 175.206 183.337" stroke="#84A800" stroke-width="2" stroke-miterlimit="10"/>
<path d="M143.061 191.288C137.19 180.709 134.105 168.592 134.206 156.495C134.226 154.415 134.475 152.056 136.133 150.802C136.954 150.183 138.006 149.942 139.035 149.923C143.315 149.846 146.793 153.185 149.738 156.294C153.587 160.353 157.435 164.413 161.283 168.472C161.288 163.02 161.922 157.567 163.171 152.258C163.488 150.908 164.036 149.366 165.357 148.962C166.822 148.516 168.23 149.76 169.162 150.975C173.673 156.851 175.417 164.326 177.05 171.552C178.842 159.844 180.947 148.179 183.354 136.582C183.921 133.843 185.679 130.341 188.364 131.11C190.377 131.686 190.882 134.257 190.973 136.346C191.487 147.992 190.522 159.7 188.1 171.1C192.126 164.101 196.157 157.101 200.183 150.101C201.269 148.218 202.402 146.277 204.17 145.008C205.938 143.745 208.523 143.346 210.243 144.682C214.134 147.06 204.757 176.755 196.176 190.418L143.061 191.288Z" fill="#A3D800"/>
<path d="M201.081 168.006C199.438 166.724 197.127 168.256 195.681 169.755C192.914 172.633 190.334 175.688 187.961 178.898C188.417 173.176 187.874 167.377 186.361 161.838C186.236 161.377 186.082 160.891 185.708 160.598C185.102 160.127 184.209 160.377 183.56 160.79C181.144 162.323 180.361 165.417 179.611 168.179C178.141 173.594 176.037 178.84 173.361 183.774C173.702 177.865 171.602 171.855 167.658 167.44C167.024 166.728 166.068 165.998 165.203 166.407C164.704 166.642 164.439 167.19 164.223 167.704C162.489 171.811 161.384 176.188 160.966 180.627C158.16 174.06 152.967 168.549 146.582 165.354C145.049 164.586 143.017 164.014 141.763 165.186C141.091 165.816 140.865 166.781 140.697 167.685C139.313 175.112 142.153 184.005 143.988 191.336C158.242 192.599 169.772 189.995 184.041 190.615C188.633 190.812 192.544 190.831 195.235 186.464C196.378 184.605 202.955 169.467 201.081 168.006Z" fill="#90C400"/>
<path d="M187.029 138.898C186.351 155.66 182.916 172.311 176.902 187.973" stroke="white" stroke-miterlimit="10" stroke-linecap="round" stroke-linejoin="round"/>
<path d="M166.894 154.776C168.211 165.326 170.036 175.813 172.366 186.186" stroke="white" stroke-miterlimit="10" stroke-linecap="round" stroke-linejoin="round"/>
<path d="M139.501 155.756C146.087 167.156 153.491 178.081 161.643 188.42" stroke="white" stroke-miterlimit="10" stroke-linecap="round" stroke-linejoin="round"/>
<path d="M205.578 150.38C201.826 162.193 196.93 173.642 190.983 184.514" stroke="white" stroke-miterlimit="10" stroke-linecap="round"/>
<path d="M295.302 137.519C296.301 138.292 297.8 138.119 298.823 137.375C299.847 136.63 300.476 135.472 301.009 134.324C303.685 128.559 304.733 121.66 302.061 115.895C301.264 114.175 299.77 112.402 297.882 112.599C296.292 112.762 295.201 114.252 294.485 115.679C291.055 122.505 290.901 134.117 295.302 137.519Z" fill="#FF5AA5"/>
<path d="M295.811 139.066C297.075 139.075 298.165 138.028 298.53 136.817C298.895 135.607 298.694 134.3 298.42 133.065C297.06 126.858 293.712 120.728 288.096 117.754C286.419 116.865 284.156 116.361 282.772 117.663C281.605 118.753 281.639 120.603 281.936 122.174C283.344 129.683 290.253 139.022 295.811 139.066Z" fill="#FF5AA5"/>
<path d="M297.81 139.34C298.708 140.228 300.217 140.238 301.326 139.623C302.431 139.008 303.195 137.932 303.863 136.861C307.216 131.465 309.095 124.739 307.144 118.691C306.563 116.885 305.295 114.948 303.397 114.91C301.802 114.881 300.538 116.226 299.65 117.557C295.422 123.918 293.856 135.429 297.81 139.34Z" fill="#FFA4C9"/>
<path d="M296.344 140.752C297.555 141.122 298.895 140.425 299.587 139.368C300.279 138.311 300.457 137.005 300.548 135.741C301.009 129.404 299.544 122.578 295.009 118.129C293.654 116.803 291.631 115.674 289.936 116.524C288.509 117.24 288.014 119.018 287.851 120.608C287.063 128.213 291.026 139.128 296.344 140.752Z" fill="#FFA4C9"/>
<path d="M296.147 140.603C297.387 140.353 298.237 139.109 298.348 137.845C298.458 136.587 297.992 135.352 297.473 134.194C294.874 128.395 290.349 123.082 284.243 121.314C282.422 120.786 280.106 120.757 279.016 122.309C278.098 123.615 278.506 125.417 279.116 126.897C282.023 133.964 290.695 141.694 296.147 140.603Z" fill="#FFA4C9"/>
<path d="M280.721 123.471C281.965 127.204 284.103 130.61 294.557 139.623" stroke="white" stroke-miterlimit="10" stroke-linecap="round" stroke-linejoin="round"/>
<path d="M291.18 119.008C295.076 125.253 297.92 133.445 298.084 140.805" stroke="white" stroke-miterlimit="10" stroke-linecap="round" stroke-linejoin="round"/>
<path d="M303.426 117.696C304.54 124.336 303.705 131.292 301.057 137.485C300.606 138.537 300.082 139.599 299.213 140.344" stroke="white" stroke-miterlimit="10" stroke-linecap="round" stroke-linejoin="round"/>
<path d="M298.583 140.617C297.997 144.365 306.414 167.536 314.879 176.904" stroke="#00A742" stroke-width="2" stroke-miterlimit="10" stroke-linecap="round" stroke-linejoin="round"/>
<path d="M297.944 122.03C297.944 122.03 302.057 129.803 299.592 139.368" stroke="white" stroke-miterlimit="10" stroke-linecap="round" stroke-linejoin="round"/>
<path d="M287.851 123.265C287.851 123.265 289.974 133.45 296.806 140.363" stroke="white" stroke-miterlimit="10" stroke-linecap="round" stroke-linejoin="round"/>
<path d="M297.618 141.698C295.936 141.886 294.216 141.742 292.592 141.285C291.997 141.117 291.358 140.867 291.05 140.329C291.483 139.782 292.256 139.652 292.957 139.623C294.764 139.546 296.657 139.902 298.098 140.992C298.151 141.031 298.199 141.074 298.232 141.127C298.309 141.266 298.228 141.453 298.093 141.54C297.959 141.626 297.79 141.646 297.632 141.655" fill="#00A742"/>
<path d="M298.823 141.261C300.438 140.742 301.941 139.911 303.229 138.821C303.7 138.422 304.175 137.932 304.223 137.307C303.594 136.981 302.835 137.182 302.182 137.442C300.5 138.114 298.924 139.215 298.079 140.81C298.05 140.867 298.021 140.925 298.016 140.992C298.007 141.151 298.16 141.29 298.324 141.314C298.482 141.338 298.641 141.285 298.795 141.232" fill="#00A742"/>
<path d="M296.964 149.558C293.414 147.098 289.297 145.614 285.184 144.293C285.544 144.408 286.515 147.444 286.789 147.944C287.447 149.159 288.216 150.312 289.066 151.398C290.805 153.618 292.914 155.544 295.273 157.086C297.627 158.624 300.236 159.786 302.974 160.449C306.611 161.333 305.006 159.671 303.753 157.519C301.903 154.343 300.048 151.696 296.964 149.558Z" fill="#00A742"/>
<path d="M308.254 137.053C309.311 141.035 309.916 145.177 309.537 149.28C309.157 153.382 307.75 157.452 305.122 160.622C303.397 157.13 303.844 152.522 304.406 148.751C304.713 146.68 305.199 144.634 305.857 142.65C306.193 141.626 308.48 137.908 308.254 137.053Z" fill="#00A742"/>
<path d="M287.005 118.383C287.317 118.897 287.149 119.57 286.635 119.877C286.121 120.19 285.448 120.022 285.141 119.508C284.829 118.994 284.997 118.321 285.511 118.013C286.025 117.706 286.693 117.869 287.005 118.383Z" fill="white"/>
<path d="M297.099 116.135C297.411 116.649 297.243 117.322 296.729 117.629C296.215 117.941 295.542 117.773 295.235 117.259C294.922 116.745 295.091 116.073 295.605 115.765C296.119 115.453 296.791 115.616 297.099 116.135Z" fill="white"/>
<path d="M292.563 114.021C292.876 114.535 292.708 115.208 292.194 115.515C291.679 115.828 291.007 115.66 290.699 115.145C290.387 114.631 290.555 113.959 291.069 113.651C291.583 113.339 292.251 113.507 292.563 114.021Z" fill="white"/>
<path d="M365.886 142.65C365.991 143.908 367.14 144.893 368.379 145.148C369.619 145.398 370.897 145.076 372.102 144.691C378.156 142.76 383.945 138.854 386.381 132.988C387.106 131.235 387.399 128.938 385.977 127.68C384.781 126.623 382.946 126.824 381.408 127.266C374.063 129.361 365.41 137.11 365.886 142.65Z" fill="#FF5AA5"/>
<path d="M365.093 144.076C365.943 145.013 367.447 145.105 368.586 144.552C369.724 144 370.546 142.967 371.271 141.934C374.918 136.731 377.166 130.115 375.552 123.971C375.071 122.136 373.909 120.132 372.016 119.993C370.421 119.873 369.085 121.151 368.129 122.429C363.556 128.544 361.36 139.954 365.093 144.076Z" fill="#FF5AA5"/>
<path d="M366.246 145.729C366.198 146.993 367.217 148.107 368.418 148.506C369.619 148.905 370.925 148.737 372.17 148.501C378.41 147.314 384.632 144.144 387.764 138.619C388.701 136.971 389.268 134.723 388.009 133.305C386.952 132.109 385.103 132.09 383.527 132.34C375.979 133.531 366.448 140.171 366.246 145.729Z" fill="#FFA4C9"/>
<path d="M364.214 145.609C364.762 146.748 366.179 147.266 367.428 147.06C368.677 146.853 369.758 146.099 370.748 145.311C375.725 141.362 379.756 135.664 379.957 129.313C380.02 127.415 379.477 125.167 377.704 124.49C376.21 123.923 374.567 124.763 373.284 125.719C367.159 130.283 361.807 140.593 364.214 145.609Z" fill="#FFA4C9"/>
<path d="M364.19 145.359C365.213 146.104 366.707 145.888 367.707 145.114C368.706 144.341 369.302 143.164 369.801 142.001C372.309 136.164 373.159 129.231 370.325 123.543C369.479 121.847 367.932 120.118 366.054 120.368C364.469 120.579 363.421 122.097 362.749 123.548C359.515 130.471 359.693 142.088 364.19 145.359Z" fill="#FFA4C9"/>
<path d="M366.357 122.409C364.449 125.854 363.392 129.731 363.834 143.529" stroke="white" stroke-miterlimit="10" stroke-linecap="round" stroke-linejoin="round"/>
<path d="M376.719 127.089C374.759 134.184 370.656 141.818 365.353 146.925" stroke="white" stroke-miterlimit="10" stroke-linecap="round" stroke-linejoin="round"/>
<path d="M385.972 135.213C381.836 140.526 376.157 144.624 369.806 146.863C368.725 147.242 367.591 147.579 366.453 147.444" stroke="white" stroke-miterlimit="10" stroke-linecap="round" stroke-linejoin="round"/>
<path d="M365.828 147.166C362.677 149.27 351.319 171.148 350.152 183.721" stroke="#00A742" stroke-width="2" stroke-miterlimit="10" stroke-linecap="round" stroke-linejoin="round"/>
<path d="M379.078 134.112C379.078 134.112 376.138 142.405 367.428 147.06" stroke="white" stroke-miterlimit="10" stroke-linecap="round" stroke-linejoin="round"/>
<path d="M371.334 127.516C371.334 127.516 365.276 135.972 364.81 145.681" stroke="white" stroke-miterlimit="10" stroke-linecap="round" stroke-linejoin="round"/>
<path d="M364.377 147.185C363.104 146.075 362.042 144.715 361.279 143.202C361 142.65 360.75 142.011 360.937 141.42C361.634 141.367 362.249 141.852 362.744 142.347C364.022 143.625 365.045 145.258 365.218 147.06C365.223 147.122 365.228 147.19 365.208 147.252C365.156 147.406 364.963 147.468 364.81 147.43C364.656 147.391 364.531 147.276 364.411 147.17" fill="#00A742"/>
<path d="M365.516 147.776C366.991 148.612 368.624 149.154 370.296 149.366C370.911 149.443 371.593 149.457 372.083 149.073C371.896 148.386 371.238 147.963 370.604 147.66C368.97 146.877 367.096 146.464 365.348 146.92C365.285 146.935 365.223 146.954 365.17 146.997C365.045 147.098 365.05 147.305 365.141 147.439C365.232 147.574 365.377 147.656 365.521 147.732" fill="#00A742"/>
<path d="M358.151 152.027C357.56 147.752 355.864 143.711 354.053 139.796C354.211 140.137 352.636 142.909 352.448 143.447C352.002 144.754 351.67 146.099 351.444 147.463C350.988 150.245 350.997 153.099 351.459 155.88C351.92 158.653 352.833 161.362 354.192 163.827C356.003 167.103 356.143 164.797 356.878 162.419C357.968 158.898 358.665 155.746 358.151 152.027Z" fill="#00A742"/>
<path d="M374.999 151.869C372.785 155.342 370.142 158.595 366.871 161.093C363.594 163.591 359.645 165.311 355.533 165.523C356.935 161.891 360.63 159.099 363.782 156.961C365.511 155.784 367.346 154.756 369.254 153.896C370.238 153.449 374.524 152.614 374.999 151.869Z" fill="#00A742"/>
<path d="M374.356 123.591C374.187 124.168 373.582 124.499 373.006 124.331C372.429 124.163 372.098 123.557 372.266 122.981C372.434 122.404 373.039 122.073 373.616 122.241C374.192 122.409 374.524 123.015 374.356 123.591Z" fill="white"/>
<path d="M382.845 129.5C382.677 130.077 382.071 130.408 381.495 130.24C380.918 130.072 380.587 129.467 380.755 128.89C380.923 128.314 381.528 127.982 382.105 128.15C382.681 128.314 383.013 128.919 382.845 129.5Z" fill="white"/>
<path d="M381.327 124.73C381.158 125.306 380.553 125.638 379.977 125.47C379.4 125.301 379.069 124.696 379.237 124.12C379.405 123.543 380.01 123.212 380.587 123.38C381.163 123.548 381.495 124.153 381.327 124.73Z" fill="white"/>
<path d="M220.956 158.211C219.674 157.384 218.295 156.25 218.304 154.723C218.377 153.036 222.921 154.204 225.088 155.006C227.255 155.808 229.196 157.106 231.117 158.388C229.013 156.63 226.991 154.78 225.059 152.839C223.349 151.124 221.634 149.193 221.24 146.805C221.192 146.527 221.168 146.229 221.288 145.974C221.672 145.153 222.917 145.532 223.656 146.061C227.831 149.025 231.29 152.873 234.716 156.688C232.453 151.883 230.142 146.839 230.368 141.535C230.377 141.261 230.411 140.954 230.618 140.771C230.839 140.574 231.175 140.593 231.458 140.675C232.832 141.074 233.529 142.563 234.034 143.904C235.292 147.238 236.412 150.62 237.392 154.045C237.363 150.322 237.334 146.599 237.3 142.875C237.286 141.021 236.551 137.975 238.098 137.418C239.097 137.288 239.731 138.436 240.044 139.392C241.639 144.283 242.643 149.361 243.037 154.492C243.863 150.692 244.93 146.945 246.217 143.274C246.491 142.491 247.034 141.545 247.855 141.674C248.172 141.722 248.437 141.934 248.653 142.169C250.036 143.678 249.715 146.037 249.22 148.026C248.494 150.942 247.596 153.815 246.525 156.625C245.578 159.109 244.411 161.655 242.297 163.265C239.4 165.475 235.686 165.071 232.515 163.779C228.518 162.155 224.584 160.545 220.956 158.211Z" fill="#4DB7FF"/>
<path d="M247.951 144.653C246.265 150.711 244.3 156.692 242.061 162.568" stroke="white" stroke-miterlimit="10" stroke-linecap="round" stroke-linejoin="round"/>
<path d="M239.078 142.155C239.856 148.813 240.193 155.53 240.092 162.232" stroke="white" stroke-miterlimit="10" stroke-linecap="round" stroke-linejoin="round"/>
<path d="M232.611 144.74C234.375 151.182 236.503 157.524 238.987 163.726" stroke="white" stroke-miterlimit="10" stroke-linecap="round" stroke-linejoin="round"/>
<path d="M223.897 148.607C228.235 152.979 232.285 157.634 236.013 162.539" stroke="white" stroke-miterlimit="10" stroke-linecap="round" stroke-linejoin="round"/>
<path d="M221.182 156.116C226.452 158.686 231.631 161.439 236.714 164.365" stroke="white" stroke-miterlimit="10" stroke-linecap="round" stroke-linejoin="round"/>
<path d="M234.692 173.036C230.498 169.231 225.232 166.858 220.063 164.547C221.072 165.744 221.153 167.435 221.403 168.982C222.167 173.671 224.929 177.889 228.523 180.997C230.752 182.924 233.294 184.456 235.96 185.691C237.103 186.219 238.799 187.247 240.072 187.343C241.494 187.449 241.384 186.7 241.288 185.359C240.937 180.589 238.165 176.193 234.692 173.036Z" fill="#48B700"/>
<path d="M244.709 171.499C245.684 169.251 246.669 166.978 248.11 164.994C250.435 161.799 253.861 159.469 255.869 156.068C255.412 161.035 254.932 166.089 253.005 170.692C251.261 174.857 247.826 179.301 243.267 180.55C241.216 181.112 241.494 179.902 242.071 178.335C242.912 176.049 243.738 173.733 244.709 171.499Z" fill="#48B700"/>
<path d="M228.725 216.433C240.024 202.15 244.305 182.664 240.452 164.908" stroke="#48B700" stroke-width="2" stroke-miterlimit="10"/>
<path d="M234.235 165.249C233.452 164.927 232.549 164.365 232.616 163.519C232.679 162.741 233.539 162.299 234.303 162.145C235.066 161.991 235.926 161.948 236.479 161.396C236.806 161.069 236.969 160.613 237.199 160.214C237.43 159.81 237.795 159.426 238.261 159.412C238.751 159.397 239.145 159.796 239.621 159.921C240.217 160.079 240.827 159.781 241.413 159.584C242.321 159.277 243.301 159.2 244.243 159.359C244.497 159.402 244.771 159.474 244.934 159.671C245.122 159.892 245.122 160.214 245.093 160.502C244.954 161.982 244.315 163.361 243.685 164.706C243.373 165.378 241.413 167.675 240.668 167.684C238.136 167.732 236.104 166.017 234.235 165.249Z" fill="#48B700"/>
<path d="M225.078 169.457C231.425 173.973 236.291 180.224 241.062 186.383" stroke="white" stroke-miterlimit="10" stroke-linecap="round" stroke-linejoin="round"/>
<path d="M252.299 163.438C250.152 169.621 246.659 175.333 242.133 180.06" stroke="white" stroke-miterlimit="10" stroke-linecap="round" stroke-linejoin="round"/>
<path d="M346.823 99.2194C345.3 99.3347 343.517 99.2626 342.6 98.0423C341.639 96.6539 345.963 94.8427 348.177 94.1701C350.387 93.5023 352.722 93.3582 355.028 93.2237C352.29 93.094 349.561 92.8394 346.847 92.4598C344.449 92.1235 341.917 91.6239 340.154 89.9568C339.948 89.7646 339.751 89.5388 339.688 89.265C339.496 88.381 340.721 87.9294 341.624 87.9054C346.746 87.7469 351.824 88.7221 356.854 89.6974C352.15 87.2328 347.26 84.6097 344.233 80.2474C344.075 80.0216 343.916 79.7574 343.969 79.4836C344.026 79.1953 344.305 79.0032 344.579 78.8975C345.915 78.3882 347.37 79.1521 348.581 79.916C351.598 81.8136 354.533 83.8314 357.382 85.9693C355.11 83.0195 352.837 80.0697 350.565 77.1199C349.431 75.6498 347.01 73.6704 347.903 72.2916C348.619 71.5806 349.82 72.1187 350.647 72.6904C354.87 75.6258 358.742 79.0656 362.153 82.9138C360.519 79.3827 359.097 75.7555 357.911 72.0514C357.656 71.2587 357.517 70.1826 358.252 69.7886C358.53 69.6397 358.872 69.6445 359.184 69.7022C361.197 70.0673 362.364 72.1427 363.171 74.026C364.358 76.7884 365.372 79.6229 366.217 82.5054C366.962 85.0613 367.567 87.7901 366.861 90.3556C365.886 93.8675 362.686 95.7843 359.376 96.6731C355.23 97.7973 351.127 98.8879 346.823 99.2194Z" fill="#4DB7FF"/>
<path d="M360.15 72.109C362.465 77.9558 364.512 83.9082 366.28 89.9471" stroke="white" stroke-miterlimit="10" stroke-linecap="round" stroke-linejoin="round"/>
<path d="M351.564 75.4768C356.205 80.3147 360.529 85.46 364.497 90.8648" stroke="white" stroke-miterlimit="10" stroke-linecap="round" stroke-linejoin="round"/>
<path d="M347.976 81.4436C353.27 85.5128 358.8 89.2841 364.526 92.724" stroke="white" stroke-miterlimit="10" stroke-linecap="round" stroke-linejoin="round"/>
<path d="M343.364 89.7886C349.46 90.6533 355.504 91.9168 361.432 93.5743" stroke="white" stroke-miterlimit="10" stroke-linecap="round" stroke-linejoin="round"/>
<path d="M345.737 97.413C351.487 96.2792 357.281 95.3423 363.099 94.6073" stroke="white" stroke-miterlimit="10" stroke-linecap="round" stroke-linejoin="round"/>
<path d="M366.727 102.736C361.086 102.236 355.456 103.529 349.941 104.807C351.468 105.148 352.554 106.45 353.688 107.531C357.128 110.807 361.879 112.498 366.616 112.806C369.556 112.993 372.506 112.681 375.379 112.051C376.609 111.782 378.583 111.581 379.655 110.884C380.851 110.111 380.313 109.577 379.424 108.568C376.263 104.984 371.401 103.149 366.727 102.736Z" fill="#48B700"/>
<path d="M373.779 95.4625C373.198 93.0796 372.607 90.6775 372.559 88.2273C372.482 84.2782 373.803 80.3532 373.352 76.4281C375.989 80.6606 378.66 84.9796 379.905 89.8127C381.034 94.1845 380.976 99.8007 378.098 103.548C376.801 105.234 376.297 104.1 375.807 102.505C375.096 100.171 374.356 97.8262 373.779 95.4625Z" fill="#48B700"/>
<path d="M388.182 140.925C388.557 122.717 380.198 104.6 366.4 92.7769" stroke="#48B700" stroke-width="2" stroke-miterlimit="10"/>
<path d="M361.658 96.8077C360.837 97.0239 359.78 97.1248 359.323 96.4089C358.9 95.7508 359.318 94.8812 359.837 94.2951C360.356 93.7137 361.014 93.1565 361.12 92.383C361.182 91.9218 361.038 91.4654 360.981 91.0042C360.923 90.543 360.981 90.0145 361.341 89.7214C361.721 89.414 362.278 89.4956 362.734 89.3083C363.306 89.0729 363.613 88.4723 363.959 87.9583C364.497 87.1656 365.232 86.5122 366.078 86.0702C366.309 85.9501 366.568 85.8444 366.818 85.9021C367.101 85.9693 367.293 86.224 367.447 86.469C368.23 87.7325 368.552 89.217 368.864 90.6679C369.018 91.3933 368.845 94.4056 368.259 94.862C366.265 96.4282 363.613 96.2888 361.658 96.8077Z" fill="#48B700"/>
<path d="M356.902 105.691C364.69 105.455 372.343 107.497 379.866 109.524" stroke="white" stroke-miterlimit="10" stroke-linecap="round" stroke-linejoin="round"/>
<path d="M374.956 84.4512C376.979 90.6775 377.647 97.3361 376.897 103.841" stroke="white" stroke-miterlimit="10" stroke-linecap="round" stroke-linejoin="round"/>
<path d="M271.852 182.405C265.439 179.532 261.293 173.243 259.073 166.579C256.94 160.171 255.869 153.329 256.666 146.623C257.464 139.916 260.217 133.349 264.963 128.544C265.199 128.304 265.468 128.054 265.804 128.016C266.251 127.963 266.64 128.299 266.957 128.612C274.005 135.486 279.232 144.413 280.798 154.127C282.364 163.841 282.753 172.489 276.445 180.041C276.45 180.041 273.918 183.327 271.852 182.405Z" fill="#90C400"/>
<path opacity="0.37" d="M272.189 179.421C266.693 176.865 263.07 171.422 261.081 165.686C259.169 160.171 258.151 154.305 258.723 148.583C259.294 142.861 261.533 137.283 265.492 133.248C265.689 133.046 265.914 132.839 266.198 132.811C266.577 132.772 266.914 133.065 267.188 133.339C273.284 139.33 277.867 147.045 279.347 155.376C280.827 163.711 281.293 171.11 276.051 177.471C276.056 177.471 273.957 180.243 272.189 179.421Z" fill="#009C5D"/>
<path d="M271.093 189.179C270.964 188.122 271.113 187.05 271.242 185.989C273.625 166.719 270.113 147.214 265.602 128.323" stroke="white" stroke-miterlimit="10" stroke-linecap="round" stroke-linejoin="round"/>
<path d="M259.39 136.865C262.989 139.671 266.265 142.885 269.138 146.426" stroke="white" stroke-miterlimit="10" stroke-linecap="round" stroke-linejoin="round"/>
<path d="M256.705 146.969C257.891 147.266 258.968 147.891 260 148.544C264.166 151.182 267.908 154.478 271.055 158.273" stroke="white" stroke-miterlimit="10" stroke-linecap="round" stroke-linejoin="round"/>
<path d="M256.873 155.669C262.494 158.84 267.615 162.89 272.001 167.622" stroke="white" stroke-miterlimit="10" stroke-linecap="round" stroke-linejoin="round"/>
<path d="M258.732 166.022C263.426 168.698 267.803 171.936 271.737 175.64" stroke="white" stroke-miterlimit="10" stroke-linecap="round" stroke-linejoin="round"/>
<path d="M271.973 175.501C274.812 172.047 278.05 168.919 281.595 166.195" stroke="white" stroke-miterlimit="10" stroke-linecap="round" stroke-linejoin="round"/>
<path d="M272.194 167.415C274.793 163.351 277.733 159.503 280.971 155.924" stroke="white" stroke-miterlimit="10" stroke-linecap="round" stroke-linejoin="round"/>
<path d="M270.959 158.263C273.207 154.122 275.797 150.163 278.694 146.45C278.617 146.594 278.54 146.743 278.468 146.887" stroke="white" stroke-miterlimit="10" stroke-linecap="round" stroke-linejoin="round"/>
<path d="M269.21 146.623C270.642 143.529 272.395 140.589 274.432 137.855" stroke="white" stroke-miterlimit="10" stroke-linecap="round" stroke-linejoin="round"/>
<path d="M12.3421 170.971C8.81095 164.898 9.10881 157.37 11.1939 150.663C13.202 144.211 16.32 138.033 20.8792 133.051C25.4384 128.069 31.5062 124.336 38.1648 123.202C38.4963 123.144 38.8614 123.101 39.1545 123.265C39.5485 123.486 39.6686 123.98 39.7454 124.422C41.4605 134.117 40.4997 144.418 36.1038 153.219C31.7079 162.025 26.9806 169.27 17.4538 171.73C17.449 171.73 13.4759 172.921 12.3421 170.971Z" fill="#90C400"/>
<path opacity="0.37" d="M14.3502 168.741C11.3764 163.462 11.6118 156.923 13.3365 151.11C14.9988 145.513 17.5931 140.156 21.398 135.842C25.203 131.528 30.2715 128.304 35.8396 127.334C36.1182 127.286 36.4209 127.247 36.6707 127.391C36.9974 127.584 37.1031 128.016 37.1703 128.395C38.6308 136.817 37.8525 145.758 34.1917 153.392C30.5357 161.026 26.5962 167.305 18.6308 169.419C18.6308 169.414 15.3063 170.442 14.3502 168.741Z" fill="#009C5D"/>
<path d="M7.76843 176.03C8.28249 175.093 9.02714 174.31 9.74778 173.526C22.9258 159.263 31.4485 141.372 38.8038 123.394" stroke="white" stroke-miterlimit="10" stroke-linecap="round" stroke-linejoin="round"/>
<path d="M28.7773 126.709C30.0649 131.086 30.8528 135.607 31.1218 140.161" stroke="white" stroke-miterlimit="10" stroke-linecap="round" stroke-linejoin="round"/>
<path d="M20.7062 133.353C21.4941 134.285 22.0082 135.419 22.4646 136.553C24.3094 141.127 25.4288 145.989 25.7699 150.903" stroke="white" stroke-miterlimit="10" stroke-linecap="round" stroke-linejoin="round"/>
<path d="M15.7627 140.516C18.4771 146.373 20.2787 152.647 21.081 159.051" stroke="white" stroke-miterlimit="10" stroke-linecap="round" stroke-linejoin="round"/>
<path d="M11.2371 150.005C13.4903 154.92 15.1573 160.099 16.1903 165.402" stroke="white" stroke-miterlimit="10" stroke-linecap="round" stroke-linejoin="round"/>
<path d="M16.4641 165.431C20.7879 164.283 25.2415 163.63 29.7094 163.486" stroke="white" stroke-miterlimit="10" stroke-linecap="round" stroke-linejoin="round"/>
<path d="M21.3596 158.989C25.842 157.202 30.4733 155.789 35.191 154.771" stroke="white" stroke-miterlimit="10" stroke-linecap="round" stroke-linejoin="round"/>
<path d="M25.6978 150.836C29.94 148.785 34.3503 147.079 38.8711 145.753C38.7221 145.825 38.578 145.902 38.4291 145.974" stroke="white" stroke-miterlimit="10" stroke-linecap="round" stroke-linejoin="round"/>
<path d="M31.0642 140.358C34.0284 138.681 37.1704 137.312 40.4228 136.284" stroke="white" stroke-miterlimit="10" stroke-linecap="round" stroke-linejoin="round"/>
<path d="M16.8917 108.347C15.3591 109.63 14.307 111.48 13.9899 113.454C13.817 114.521 13.9467 115.799 14.8499 116.394C15.5945 116.884 16.6034 116.721 17.4105 116.332C19.6541 115.251 20.9465 112.493 20.3411 110.077C21.1002 112.095 22.4069 114.122 24.3767 114.992C25.0349 115.28 26.2263 115.621 27.1007 115.381C27.7925 115.189 28.321 114.651 28.5852 113.983C28.8686 113.262 28.6188 112.316 28.1144 111.73C27.6099 111.143 27.0478 110.605 26.3704 110.235C25.2799 109.644 24.1269 108.89 22.7096 108.405C24.492 108.501 25.8035 108.54 27.2448 108.227C27.9606 108.073 28.7485 107.756 29.3683 107.367C29.988 106.978 30.3628 106.267 30.3387 105.532C30.3195 104.811 29.7959 104.172 29.1521 103.836C28.5131 103.5 27.7685 103.423 27.0478 103.409C25.6786 103.375 24.3094 103.543 22.9883 103.908C23.7713 102.895 24.4295 101.713 24.8907 100.516C25.1357 99.8823 25.3327 99.2049 25.2847 98.5275C25.2366 97.8501 24.9051 97.1583 24.3094 96.8268C23.5552 96.4088 22.5607 96.6827 21.9265 97.2688C21.2924 97.8549 20.9465 98.6812 20.6726 99.5028C20.3988 100.319 20.1826 101.17 19.7262 101.905C19.1593 100.68 18.6116 99.0415 17.5739 98.1768C16.5362 97.3168 14.9219 96.9853 13.8362 97.7924C13.1011 98.3401 12.7504 99.3394 12.9138 100.243C13.6104 102.039 15.1141 103.509 16.9253 104.168C15.2294 103.293 13.13 103.476 11.4004 104.293C10.8576 104.552 10.3339 104.898 9.9976 105.398C9.6565 105.897 9.52678 106.56 9.76699 107.113C10.012 107.67 10.5789 108.016 11.1458 108.251C12.8369 108.948 15.1862 109.006 16.8917 108.347Z" fill="white"/>
<path d="M19.8895 109.529C21.5452 109.529 22.8874 108.187 22.8874 106.531C22.8874 104.876 21.5452 103.533 19.8895 103.533C18.2339 103.533 16.8917 104.876 16.8917 106.531C16.8917 108.187 18.2339 109.529 19.8895 109.529Z" fill="#FFEC00"/>
<path d="M107.048 125.777C105.515 127.06 104.463 128.91 104.146 130.884C103.973 131.951 104.103 133.229 105.006 133.824C105.751 134.314 106.76 134.151 107.567 133.762C109.81 132.681 111.103 129.923 110.497 127.507C111.256 129.524 112.563 131.552 114.533 132.421C115.191 132.71 116.383 133.051 117.257 132.811C117.949 132.618 118.477 132.08 118.741 131.413C119.025 130.692 118.775 129.745 118.271 129.159C117.766 128.573 117.204 128.035 116.527 127.665C115.436 127.074 114.283 126.32 112.866 125.835C114.648 125.931 115.96 125.969 117.401 125.657C118.117 125.503 118.905 125.186 119.525 124.797C120.144 124.408 120.519 123.697 120.5 122.962C120.481 122.241 119.957 121.602 119.313 121.266C118.674 120.93 117.93 120.853 117.209 120.838C115.84 120.805 114.47 120.973 113.149 121.338C113.932 120.324 114.591 119.143 115.052 117.946C115.297 117.312 115.494 116.635 115.446 115.957C115.398 115.28 115.066 114.588 114.47 114.257C113.716 113.839 112.722 114.112 112.088 114.699C111.453 115.285 111.108 116.111 110.834 116.928C110.56 117.744 110.344 118.595 109.887 119.33C109.32 118.105 108.773 116.467 107.735 115.602C106.697 114.737 105.083 114.41 103.997 115.217C103.262 115.765 102.911 116.764 103.075 117.668C103.771 119.464 105.275 120.934 107.086 121.593C105.39 120.718 103.291 120.901 101.562 121.718C101.019 121.977 100.495 122.323 100.159 122.823C99.8176 123.322 99.6879 123.985 99.9281 124.538C100.173 125.095 100.74 125.441 101.307 125.676C102.988 126.378 105.338 126.435 107.048 125.777Z" fill="white"/>
<path d="M113.039 123.961C113.039 125.614 111.698 126.959 110.041 126.959C108.388 126.959 107.043 125.619 107.043 123.961C107.043 122.309 108.384 120.963 110.041 120.963C111.694 120.968 113.039 122.309 113.039 123.961Z" fill="#FFEC00"/>
<path d="M332.837 110.798C331.305 112.08 330.253 113.93 329.936 115.904C329.763 116.971 329.892 118.249 330.796 118.845C331.54 119.335 332.549 119.171 333.356 118.782C335.6 117.701 336.892 114.944 336.287 112.527C337.046 114.545 338.353 116.572 340.322 117.442C340.981 117.73 342.172 118.071 343.046 117.831C343.738 117.639 344.267 117.101 344.531 116.433C344.814 115.712 344.565 114.766 344.06 114.18C343.556 113.594 342.994 113.056 342.316 112.686C341.226 112.095 340.073 111.34 338.655 110.855C340.438 110.951 341.749 110.99 343.191 110.677C343.906 110.524 344.694 110.207 345.314 109.817C345.934 109.428 346.308 108.717 346.284 107.982C346.265 107.262 345.742 106.623 345.098 106.286C344.459 105.95 343.714 105.873 342.994 105.859C341.624 105.825 340.25 105.993 338.934 106.358C339.717 105.345 340.375 104.163 340.836 102.967C341.081 102.332 341.278 101.655 341.23 100.978C341.182 100.3 340.851 99.6085 340.255 99.277C339.501 98.859 338.506 99.1329 337.872 99.719C337.238 100.305 336.892 101.131 336.618 101.948C336.345 102.765 336.128 103.615 335.672 104.35C335.105 103.125 334.557 101.487 333.52 100.622C332.482 99.7622 330.868 99.4307 329.782 100.238C329.047 100.786 328.696 101.785 328.86 102.688C329.556 104.485 331.06 105.955 332.871 106.613C331.175 105.739 329.076 105.921 327.346 106.738C326.803 106.997 326.28 107.343 325.943 107.843C325.602 108.343 325.473 109.006 325.713 109.558C325.958 110.115 326.525 110.461 327.092 110.697C328.783 111.398 331.127 111.456 332.837 110.798Z" fill="white"/>
<path d="M338.828 108.982C338.828 110.634 337.488 111.979 335.83 111.979C334.178 111.979 332.833 110.639 332.833 108.982C332.833 107.329 334.173 105.984 335.83 105.984C337.488 105.989 338.828 107.329 338.828 108.982Z" fill="#FFEC00"/>
<path d="M152.366 153.176C151.602 151.331 150.152 149.774 148.364 148.881C147.399 148.395 146.14 148.136 145.304 148.818C144.612 149.38 144.468 150.394 144.598 151.278C144.958 153.743 147.202 155.799 149.69 155.943C147.538 156.063 145.213 156.702 143.791 158.321C143.315 158.859 142.638 159.902 142.604 160.805C142.58 161.521 142.936 162.188 143.493 162.64C144.093 163.125 145.073 163.173 145.78 162.866C146.491 162.558 147.173 162.184 147.725 161.646C148.614 160.781 149.681 159.906 150.565 158.701C149.94 160.372 149.513 161.612 149.378 163.082C149.311 163.812 149.378 164.658 149.565 165.369C149.748 166.08 150.32 166.647 151.026 166.844C151.723 167.041 152.486 166.733 152.996 166.219C153.505 165.705 153.803 165.023 154.033 164.341C154.475 163.044 154.725 161.684 154.773 160.315C155.508 161.367 156.436 162.347 157.44 163.144C157.973 163.567 158.559 163.956 159.222 164.115C159.885 164.273 160.644 164.163 161.134 163.692C161.759 163.096 161.792 162.068 161.427 161.285C161.062 160.507 160.375 159.926 159.674 159.421C158.972 158.917 158.227 158.451 157.665 157.802C159.006 157.624 160.731 157.596 161.864 156.861C162.998 156.125 163.796 154.684 163.349 153.411C163.046 152.542 162.201 151.912 161.288 151.802C159.361 151.927 157.512 152.921 156.344 154.454C157.689 153.094 158.141 151.038 157.877 149.145C157.795 148.549 157.617 147.949 157.243 147.473C156.868 147.002 156.272 146.676 155.672 146.738C155.066 146.805 154.567 147.242 154.178 147.713C153.005 149.126 152.246 151.35 152.366 153.176Z" fill="white"/>
<path d="M152.304 159.436C150.723 158.941 149.844 157.259 150.344 155.679C150.839 154.098 152.52 153.219 154.101 153.719C155.681 154.213 156.56 155.895 156.061 157.476C155.566 159.051 153.884 159.93 152.304 159.436Z" fill="#FFEC00"/>
<path d="M57.5595 146.488C57.1944 147.439 56.0846 147.939 55.0709 147.853C54.0572 147.766 53.1396 147.228 52.2989 146.661C48.0616 143.803 44.468 139.484 43.9059 134.406C43.7378 132.887 44.0308 131.047 45.4144 130.399C46.5771 129.851 47.9463 130.423 49.0368 131.11C54.2398 134.377 59.1738 142.313 57.5595 146.488Z" fill="#FF5AA5"/>
<path d="M57.8478 147.766C56.9782 148.299 55.7964 148.03 55.0421 147.348C54.2878 146.666 53.8843 145.681 53.5576 144.72C51.9145 139.878 51.6695 134.266 54.3023 129.88C55.0901 128.573 56.4353 127.286 57.9294 127.603C59.1882 127.872 59.9328 129.159 60.3844 130.36C62.5367 136.116 61.6623 145.422 57.8478 147.766Z" fill="#FF5AA5"/>
<path d="M56.5891 148.785C56.3393 149.769 55.3015 150.404 54.2879 150.442C53.2694 150.481 52.2989 150.058 51.3909 149.592C46.8365 147.271 42.7433 143.418 41.571 138.446C41.2203 136.961 41.2876 135.097 42.5799 134.285C43.6657 133.598 45.0973 134.002 46.26 134.55C51.8185 137.168 57.6844 144.446 56.5891 148.785Z" fill="#FFA4C9"/>
<path d="M58.1841 149.15C57.5067 149.909 56.2912 149.986 55.3736 149.548C54.456 149.111 53.7882 148.28 53.2021 147.449C50.2475 143.279 48.4171 137.965 49.695 133.017C50.0745 131.537 51.0017 129.923 52.5247 129.803C53.8074 129.702 54.8884 130.721 55.6619 131.749C59.3659 136.649 61.1723 145.816 58.1841 149.15Z" fill="#FFA4C9"/>
<path d="M58.261 148.962C57.3049 149.308 56.1999 148.804 55.5994 147.978C54.9989 147.156 54.8067 146.109 54.6818 145.1C54.0621 140.027 54.9652 134.482 58.4387 130.726C59.4764 129.606 61.057 128.621 62.4551 129.236C63.6321 129.755 64.0981 131.168 64.2951 132.436C65.2271 138.518 62.4695 147.449 58.261 148.962Z" fill="#FFA4C9"/>
<path d="M61.7584 130.75C62.455 133.839 62.3974 137.072 58.948 147.632" stroke="white" stroke-miterlimit="10" stroke-linecap="round" stroke-linejoin="round"/>
<path d="M52.6976 132.023C52.6112 137.946 54.0621 144.768 57.007 149.909" stroke="white" stroke-miterlimit="10" stroke-linecap="round" stroke-linejoin="round"/>
<path d="M43.7185 136.212C45.7123 141.247 49.181 145.691 53.5816 148.857C54.3311 149.395 55.1334 149.909 56.0414 150.058" stroke="white" stroke-miterlimit="10" stroke-linecap="round" stroke-linejoin="round"/>
<path d="M56.5891 149.99C58.5492 152.325 62.3926 171.787 60.4613 181.761" stroke="#00A742" stroke-width="2" stroke-miterlimit="10" stroke-linecap="round" stroke-linejoin="round"/>
<path d="M49.2962 136.918C49.2962 136.918 49.6998 143.985 55.3784 149.544" stroke="white" stroke-miterlimit="10" stroke-linecap="round" stroke-linejoin="round"/>
<path d="M56.762 133.57C56.762 133.57 59.5389 141.468 57.7085 149.073" stroke="white" stroke-miterlimit="10" stroke-linecap="round" stroke-linejoin="round"/>
<path d="M57.7037 150.332C58.9383 149.76 60.0625 148.948 60.9946 147.954C61.3357 147.588 61.6719 147.151 61.6575 146.652C61.1291 146.455 60.5478 146.69 60.0529 146.959C58.775 147.66 57.6172 148.689 57.0791 150.043C57.0599 150.091 57.0407 150.139 57.0455 150.192C57.0503 150.322 57.1848 150.413 57.3145 150.418C57.4442 150.423 57.5643 150.365 57.6796 150.308" fill="#00A742"/>
<path d="M56.69 150.529C55.364 150.841 53.9804 150.894 52.64 150.678C52.15 150.601 51.6167 150.457 51.3236 150.048C51.6215 149.563 52.2268 149.38 52.7841 149.289C54.2206 149.054 55.7628 149.155 57.0119 149.904C57.0551 149.933 57.1031 149.957 57.132 150C57.204 150.106 57.156 150.264 57.0551 150.351C56.9542 150.437 56.8245 150.466 56.6996 150.49" fill="#00A742"/>
<path d="M61.4221 155.472C62.8442 152.301 65.0637 149.563 67.3458 146.945C67.144 147.175 67.7397 149.669 67.7589 150.125C67.8118 151.235 67.7637 152.349 67.6292 153.454C67.3554 155.703 66.702 157.908 65.7219 159.954C64.7419 161.991 63.4255 163.879 61.8209 165.475C59.683 167.598 60.0962 165.782 60.0673 163.783C60.0145 160.824 60.1875 158.23 61.4221 155.472Z" fill="#00A742"/>
<path d="M48.4459 151.557C49.3731 154.737 50.6799 157.845 52.6496 160.512C54.6193 163.178 57.2809 165.398 60.4084 166.488C60.1442 163.365 57.9198 160.377 55.9645 158.014C54.8932 156.716 53.7065 155.511 52.4286 154.415C51.7656 153.848 48.6429 152.239 48.4459 151.557Z" fill="#00A742"/>
<path d="M55.3111 129.856C55.3111 130.341 55.7051 130.73 56.1855 130.73C56.6707 130.73 57.0599 130.336 57.0599 129.856C57.0599 129.371 56.6659 128.982 56.1855 128.982C55.7051 128.982 55.3111 129.376 55.3111 129.856Z" fill="white"/>
<path d="M48.3018 133.382C48.7847 133.382 49.1761 132.991 49.1761 132.508C49.1761 132.025 48.7847 131.634 48.3018 131.634C47.8189 131.634 47.4274 132.025 47.4274 132.508C47.4274 132.991 47.8189 133.382 48.3018 133.382Z" fill="white"/>
<path d="M49.671 129.164C49.671 129.649 50.0649 130.039 50.5454 130.039C51.0306 130.039 51.4197 129.645 51.4197 129.164C51.4197 128.679 51.0258 128.29 50.5454 128.29C50.0601 128.29 49.671 128.679 49.671 129.164Z" fill="white"/>
<path d="M321.495 136.726C320.851 135.232 319.655 133.978 318.189 133.272C317.397 132.887 316.369 132.69 315.696 133.257C315.139 133.723 315.033 134.55 315.148 135.27C315.47 137.274 317.32 138.926 319.347 139.013C317.598 139.133 315.71 139.681 314.572 141.016C314.192 141.458 313.649 142.313 313.63 143.053C313.616 143.639 313.918 144.177 314.375 144.538C314.87 144.927 315.667 144.956 316.239 144.696C316.815 144.437 317.368 144.129 317.81 143.683C318.526 142.972 319.386 142.246 320.092 141.252C319.602 142.621 319.265 143.635 319.174 144.831C319.126 145.426 319.193 146.114 319.352 146.69C319.51 147.267 319.981 147.723 320.558 147.877C321.125 148.03 321.744 147.771 322.158 147.348C322.566 146.925 322.801 146.363 322.984 145.806C323.33 144.744 323.517 143.635 323.541 142.52C324.151 143.365 324.915 144.158 325.742 144.792C326.179 145.129 326.659 145.441 327.202 145.561C327.745 145.681 328.36 145.585 328.754 145.196C329.253 144.706 329.273 143.865 328.965 143.236C328.658 142.606 328.091 142.14 327.514 141.737C326.938 141.333 326.328 140.963 325.862 140.44C326.952 140.281 328.355 140.238 329.273 139.628C330.185 139.018 330.82 137.836 330.445 136.803C330.19 136.101 329.494 135.597 328.749 135.515C327.183 135.64 325.689 136.467 324.752 137.73C325.833 136.611 326.174 134.929 325.943 133.392C325.871 132.907 325.718 132.421 325.41 132.037C325.103 131.658 324.613 131.398 324.123 131.456C323.628 131.518 323.229 131.879 322.917 132.263C321.975 133.426 321.379 135.242 321.495 136.726Z" fill="white"/>
<path d="M321.514 141.828C320.222 141.444 319.491 140.084 319.876 138.792C320.26 137.499 321.62 136.769 322.912 137.154C324.204 137.538 324.934 138.898 324.55 140.19C324.166 141.477 322.806 142.212 321.514 141.828Z" fill="#FFEC00"/>
<path d="M173.736 102.087C173.217 100.882 172.251 99.8727 171.069 99.301C170.43 98.9935 169.604 98.835 169.061 99.2866C168.609 99.6613 168.528 100.329 168.619 100.91C168.878 102.525 170.368 103.855 172.006 103.927C170.594 104.024 169.075 104.466 168.153 105.542C167.846 105.902 167.408 106.589 167.394 107.185C167.384 107.656 167.625 108.088 167.994 108.381C168.393 108.693 169.037 108.717 169.498 108.511C169.959 108.304 170.406 108.054 170.767 107.694C171.343 107.117 172.035 106.536 172.607 105.734C172.213 106.839 171.944 107.656 171.867 108.621C171.828 109.102 171.881 109.654 172.011 110.12C172.141 110.586 172.515 110.951 172.981 111.076C173.438 111.201 173.937 110.99 174.269 110.649C174.6 110.307 174.788 109.856 174.937 109.404C175.215 108.549 175.364 107.656 175.388 106.757C175.878 107.439 176.498 108.078 177.166 108.588C177.521 108.861 177.906 109.111 178.343 109.207C178.78 109.303 179.275 109.227 179.597 108.914C180 108.516 180.015 107.843 179.765 107.334C179.515 106.824 179.059 106.45 178.597 106.128C178.131 105.801 177.641 105.503 177.267 105.08C178.146 104.956 179.28 104.917 180.015 104.427C180.75 103.937 181.264 102.981 180.961 102.15C180.755 101.583 180.192 101.179 179.592 101.112C178.328 101.213 177.123 101.881 176.368 102.899C177.238 101.996 177.516 100.641 177.329 99.4019C177.271 99.0127 177.147 98.6188 176.897 98.3113C176.647 98.0039 176.253 97.7973 175.859 97.8453C175.46 97.8934 175.138 98.1864 174.884 98.4987C174.12 99.4211 173.644 100.886 173.736 102.087Z" fill="white"/>
<path d="M173.75 106.195C172.707 105.883 172.117 104.787 172.429 103.75C172.741 102.707 173.836 102.116 174.874 102.429C175.917 102.741 176.508 103.836 176.195 104.874C175.888 105.916 174.792 106.507 173.75 106.195Z" fill="#FFEC00"/>
<path d="M239.448 118.259C238.929 117.053 237.963 116.044 236.782 115.472C236.143 115.165 235.316 115.006 234.773 115.458C234.322 115.832 234.24 116.5 234.331 117.082C234.591 118.696 236.08 120.027 237.718 120.099C236.306 120.195 234.788 120.637 233.865 121.713C233.558 122.073 233.121 122.76 233.106 123.356C233.097 123.827 233.337 124.259 233.707 124.552C234.106 124.864 234.749 124.888 235.211 124.682C235.672 124.475 236.119 124.225 236.479 123.865C237.055 123.289 237.747 122.707 238.319 121.905C237.925 123.01 237.656 123.827 237.579 124.792C237.541 125.273 237.593 125.825 237.723 126.291C237.853 126.757 238.228 127.122 238.694 127.247C239.15 127.372 239.65 127.161 239.981 126.82C240.313 126.479 240.5 126.027 240.649 125.575C240.928 124.72 241.077 123.827 241.101 122.928C241.591 123.611 242.21 124.249 242.878 124.759C243.234 125.033 243.618 125.282 244.055 125.378C244.492 125.475 244.987 125.398 245.309 125.085C245.713 124.687 245.727 124.014 245.477 123.505C245.227 122.996 244.771 122.621 244.31 122.299C243.844 121.972 243.354 121.674 242.979 121.252C243.858 121.127 244.992 121.088 245.727 120.598C246.467 120.108 246.976 119.152 246.673 118.321C246.467 117.754 245.905 117.351 245.304 117.283C244.041 117.384 242.835 118.052 242.081 119.071C242.95 118.167 243.229 116.813 243.041 115.573C242.984 115.184 242.859 114.79 242.609 114.482C242.359 114.175 241.965 113.968 241.571 114.016C241.173 114.064 240.851 114.358 240.596 114.67C239.832 115.592 239.352 117.058 239.448 118.259Z" fill="white"/>
<path d="M239.462 122.366C238.42 122.054 237.829 120.959 238.141 119.921C238.453 118.878 239.549 118.287 240.586 118.6C241.629 118.912 242.22 120.007 241.908 121.045C241.6 122.088 240.5 122.679 239.462 122.366Z" fill="#FFEC00"/>
<path d="M172.784 143.673C172.141 142.179 170.944 140.925 169.479 140.219C168.686 139.834 167.658 139.637 166.986 140.204C166.428 140.67 166.323 141.497 166.438 142.217C166.76 144.221 168.609 145.873 170.637 145.96C168.888 146.08 167 146.628 165.861 147.963C165.482 148.405 164.939 149.26 164.92 150C164.905 150.586 165.208 151.124 165.664 151.485C166.159 151.874 166.957 151.903 167.528 151.643C168.105 151.384 168.657 151.076 169.099 150.629C169.815 149.918 170.675 149.193 171.381 148.198C170.891 149.568 170.555 150.581 170.464 151.778C170.416 152.373 170.483 153.06 170.642 153.637C170.8 154.213 171.271 154.67 171.847 154.824C172.414 154.977 173.034 154.718 173.447 154.295C173.856 153.872 174.091 153.31 174.274 152.753C174.62 151.691 174.807 150.581 174.831 149.467C175.441 150.312 176.205 151.105 177.031 151.739C177.468 152.076 177.949 152.388 178.492 152.508C179.035 152.628 179.65 152.532 180.044 152.143C180.543 151.653 180.562 150.812 180.255 150.183C179.947 149.553 179.381 149.087 178.804 148.684C178.228 148.28 177.617 147.91 177.151 147.387C178.242 147.228 179.645 147.185 180.562 146.575C181.475 145.965 182.109 144.783 181.735 143.75C181.48 143.048 180.783 142.544 180.039 142.462C178.473 142.587 176.978 143.413 176.042 144.677C177.123 143.558 177.464 141.876 177.233 140.339C177.161 139.854 177.007 139.368 176.7 138.984C176.392 138.604 175.902 138.345 175.412 138.403C174.917 138.465 174.519 138.825 174.206 139.21C173.265 140.368 172.669 142.188 172.784 143.673Z" fill="white"/>
<path d="M172.804 148.77C171.511 148.386 170.781 147.026 171.165 145.734C171.55 144.442 172.909 143.711 174.202 144.096C175.494 144.48 176.224 145.84 175.84 147.132C175.455 148.424 174.096 149.159 172.804 148.77Z" fill="#FFEC00"/>
</g>
<g clip-path="url(#clip0_402_9887)">
<path d="M54.7252 90.7355C54.9536 90.7457 55.1821 90.7585 55.4081 90.7687C56.743 90.8276 58.7994 90.843 60.1344 90.8302C59.8366 93.5478 59.6389 96.1886 59.4053 97.7905C59.4053 97.7905 63.2613 99.3848 63.2459 100.401C63.2305 101.417 57.7443 100.779 57.7443 100.779C57.7443 100.779 53.8497 101.752 55.0255 98.4303C55.0255 98.4277 54.8997 95.3314 54.7252 90.7355Z" fill="#EFA08B"/>
<path d="M61.6337 98.7681C63.2254 99.5485 63.7106 100.283 63.7106 100.283C63.7106 100.283 63.6259 100.516 61.3923 100.738C61.2563 100.055 61.3461 99.3515 61.6337 98.7681Z" fill="white"/>
<path d="M54.91 98.0848C56.9843 99.2824 59.4926 97.9518 59.4926 97.9518C60.3654 98.2102 61.0663 98.4917 61.6311 98.7681C61.3436 99.3515 61.2563 100.055 61.3872 100.741C60.8121 100.8 60.0959 100.856 59.1973 100.91C54.8176 101.168 54.6533 99.9836 54.6533 99.9836C54.6353 98.8295 54.9254 98.1488 54.91 98.0848Z" fill="#C45910"/>
<path d="M54.6558 99.981C54.6687 100.206 54.6918 100.442 54.7329 100.69C54.7329 100.69 55.9882 101.156 59.4232 101.207C63.2613 101.26 63.7594 100.759 63.7594 100.759C63.7594 100.759 63.7876 100.567 63.7106 100.283C59.6261 101.038 56.3759 100.457 54.6558 99.981Z" fill="white"/>
<path d="M60.1061 99.789C60.1087 99.789 60.1087 99.789 60.1113 99.789C60.1395 99.7865 60.1626 99.7609 60.16 99.7302C60.0933 98.8243 60.7248 98.4328 60.7505 98.4174C60.7762 98.4021 60.7839 98.3688 60.7711 98.3432C60.7557 98.3176 60.7248 98.3074 60.6992 98.3228C60.6915 98.3279 59.9855 98.7629 60.0548 99.7379C60.0548 99.766 60.0779 99.789 60.1061 99.789Z" fill="white"/>
<path d="M59.3514 99.5127C59.3796 99.5127 59.4053 99.4897 59.4053 99.4589C59.4155 98.4968 59.9726 98.1462 59.9778 98.1411C60.0034 98.1257 60.0111 98.0925 59.9957 98.0669C59.9803 98.0413 59.9495 98.031 59.9239 98.0464C59.8982 98.0618 59.3103 98.4277 59.2974 99.4564C59.3 99.4871 59.3231 99.5127 59.3514 99.5127Z" fill="white"/>
<path d="M59.6569 98.4507C59.6363 98.4507 59.6158 98.4379 59.6081 98.4175C59.5747 98.3279 59.2795 97.5448 59.4669 97.271C59.5003 97.2224 59.5619 97.1712 59.6774 97.1738C59.7698 97.1789 59.8417 97.2199 59.8828 97.2941C60.0548 97.5883 59.7416 98.3356 59.7056 98.42C59.6979 98.4379 59.6774 98.4507 59.6569 98.4507ZM59.5516 97.3325C59.4412 97.4937 59.567 97.9696 59.6594 98.246C59.7596 97.9799 59.8956 97.5244 59.7929 97.3478C59.7673 97.3043 59.7288 97.2838 59.6697 97.2787C59.6671 97.2787 59.6646 97.2787 59.662 97.2787C59.5978 97.2813 59.5696 97.3094 59.5516 97.3325Z" fill="white"/>
<path d="M59.6543 98.4635C59.5619 98.4559 58.7558 98.3817 58.6043 98.0848C58.5786 98.0336 58.5581 97.9492 58.6146 97.8468C58.6608 97.7624 58.7275 97.7163 58.8097 97.7087C59.1434 97.6831 59.6415 98.3049 59.6979 98.3765C59.7108 98.3945 59.7133 98.4175 59.7031 98.4354C59.6928 98.4533 59.6748 98.4661 59.6569 98.4635H59.6543ZM58.8199 97.8161C58.7712 97.8213 58.7352 97.8468 58.707 97.9006C58.671 97.9671 58.6839 98.0081 58.6967 98.0336C58.7866 98.2077 59.2512 98.3049 59.5311 98.3407C59.3514 98.1334 59.0356 97.8187 58.8379 97.8161C58.8302 97.8136 58.8251 97.8136 58.8199 97.8161Z" fill="white"/>
<path d="M43.4318 89.0824C43.632 89.1899 43.8348 89.2973 44.0351 89.4023C45.2186 90.0215 47.0721 90.9095 48.2839 91.4648C46.8539 93.796 45.5446 96.1016 44.6512 97.4527C44.6512 97.4527 47.4598 100.531 47.0105 101.445C46.5638 102.358 41.8709 99.4513 41.8709 99.4513C41.8709 99.4513 37.9327 98.6785 40.4152 96.1733C40.4152 96.1707 41.6244 93.3149 43.4318 89.0824Z" fill="#EFA08B"/>
<path d="M46.248 99.2825C47.3545 100.664 47.4778 101.534 47.4778 101.534C47.4778 101.534 47.3032 101.708 45.1852 100.964C45.3598 100.288 45.7397 99.6893 46.248 99.2825Z" fill="white"/>
<path d="M40.4589 95.8125C41.8221 97.7778 44.6615 97.637 44.6615 97.637C45.3392 98.2409 45.8552 98.7937 46.248 99.285C45.7397 99.6919 45.3598 100.288 45.1852 100.966C44.6384 100.774 43.9657 100.521 43.1314 100.188C39.0597 98.5608 39.4166 97.4195 39.4166 97.4195C39.8915 96.3678 40.446 95.8765 40.4589 95.8125Z" fill="#C45910"/>
<path d="M39.4166 97.4196C39.3318 97.6294 39.2523 97.852 39.1829 98.0951C39.1829 98.0951 40.12 99.0496 43.2058 100.552C46.6537 102.23 47.3212 101.987 47.3212 101.987C47.3212 101.987 47.429 101.826 47.4803 101.534C43.4626 100.485 40.7695 98.5788 39.4166 97.4196Z" fill="white"/>
<path d="M44.4304 99.5587C44.433 99.5587 44.433 99.5613 44.4356 99.5613C44.4638 99.5715 44.4946 99.5562 44.5049 99.528C44.8309 98.681 45.5703 98.594 45.6011 98.5915C45.6293 98.5889 45.6524 98.5607 45.6499 98.5326C45.6473 98.5019 45.6216 98.4814 45.5934 98.484C45.5857 98.484 44.759 98.5787 44.4073 99.4922C44.3945 99.5178 44.4048 99.5485 44.4304 99.5587Z" fill="white"/>
<path d="M43.8656 98.9882C43.8913 99.001 43.9247 98.9882 43.9375 98.9626C44.3585 98.0977 45.0132 98.0158 45.0183 98.0158C45.0466 98.0132 45.0697 97.9851 45.0671 97.9569C45.0645 97.9262 45.0414 97.9057 45.0106 97.9083C44.9824 97.9109 44.2918 97.9927 43.8425 98.9191C43.8297 98.9447 43.8399 98.9754 43.8656 98.9882Z" fill="white"/>
<path d="M44.5947 98.159C44.5768 98.1488 44.5639 98.1283 44.5665 98.1078C44.5742 98.0132 44.6409 97.1789 44.9285 97.01C44.9773 96.9819 45.0568 96.9614 45.1595 97.0126C45.2417 97.0561 45.2879 97.1226 45.2956 97.2096C45.3264 97.55 44.7231 98.0925 44.6538 98.1539C44.6384 98.1641 44.6153 98.1667 44.5947 98.159C44.5947 98.159 44.5973 98.159 44.5947 98.159ZM44.9798 97.1022C44.8104 97.202 44.7205 97.683 44.6872 97.9748C44.8925 97.7752 45.2109 97.422 45.1903 97.2199C45.1852 97.1687 45.1595 97.1329 45.1082 97.1073C45.1056 97.1047 45.103 97.1047 45.1005 97.1022C45.0414 97.074 45.0029 97.0894 44.9798 97.1022Z" fill="white"/>
<path d="M44.587 98.1667C44.5074 98.1206 43.8091 97.7112 43.7989 97.376C43.7963 97.3197 43.8143 97.2352 43.9118 97.1636C43.9889 97.1073 44.071 97.0919 44.148 97.1201C44.4612 97.2378 44.6461 98.0131 44.6666 98.1027C44.6717 98.1232 44.664 98.1462 44.6461 98.159C44.6307 98.1718 44.6076 98.1744 44.5896 98.1667C44.5896 98.1692 44.5896 98.1692 44.587 98.1667ZM44.1095 97.2276C44.0633 97.2096 44.0197 97.2199 43.9709 97.2557C43.9093 97.2992 43.9041 97.3427 43.9041 97.3734C43.9093 97.5704 44.2892 97.8545 44.528 98.0055C44.4535 97.7419 44.3021 97.3222 44.1249 97.2352C44.1198 97.2301 44.1146 97.2276 44.1095 97.2276Z" fill="white"/>
<path d="M52.9768 80.446C52.9768 80.446 52.0809 84.0259 50.2735 88C48.4687 91.9741 45.3469 97.0126 45.3469 97.0126C45.3469 97.0126 42.2662 97.1406 40.0481 95.4312C40.0481 95.4312 44.0428 87.6392 43.9863 85.2594C43.9298 82.8795 42.6051 75.8091 42.5486 73.5086L60.3398 72.5874C60.3398 72.5874 61.8031 81.3467 61.2845 88.0179C60.7634 94.6891 60.1215 97.7522 60.1215 97.7522C60.1215 97.7522 56.6557 98.0285 54.1193 97.3939C54.1193 97.3939 54.8047 89.3434 54.5891 87.501C54.376 85.656 52.9768 80.446 52.9768 80.446Z" fill="#0E97E2"/>
<path d="M50.6073 80.8042C50.6098 80.8042 50.6098 80.8042 50.6124 80.8042C52.7894 80.7095 55.9138 80.0493 55.9446 80.0416C55.9934 80.0314 56.0267 79.9828 56.0139 79.9341C56.0036 79.8855 55.9549 79.8523 55.9061 79.8651C55.8753 79.8727 52.7638 80.5278 50.6021 80.6225C50.5508 80.6251 50.5123 80.666 50.5148 80.7172C50.52 80.7658 50.5585 80.8016 50.6073 80.8042Z" fill="#4373B9"/>
<path d="M53.2772 79.0999C53.2798 79.0999 53.2798 79.0999 53.2823 79.0999C53.3337 79.0973 53.3722 79.0538 53.3696 79.0052L53.077 72.787C53.0744 72.7358 53.0307 72.7025 52.982 72.7C52.9306 72.7025 52.8921 72.746 52.8947 72.7946L53.1874 79.0129C53.1899 79.0615 53.231 79.0999 53.2772 79.0999Z" fill="#4373B9"/>
<path d="M52.7638 78.8696C53.0102 78.8722 53.2053 78.7468 53.2156 78.7391C53.2567 78.711 53.2695 78.6547 53.2413 78.6137C53.213 78.5702 53.1566 78.56 53.1155 78.5856C53.1129 78.5881 52.8408 78.7596 52.5815 78.6495C52.3556 78.5549 52.1964 78.2785 52.1065 77.8281C51.8344 76.4616 51.398 73.5393 51.3954 73.5112C51.3877 73.4625 51.3389 73.4267 51.2927 73.4344C51.2414 73.4421 51.208 73.4881 51.2157 73.5367C51.2208 73.5675 51.6547 76.4923 51.9294 77.8639C52.0321 78.3783 52.2298 78.6982 52.5147 78.8184C52.5995 78.8543 52.6842 78.8696 52.7638 78.8696Z" fill="#4373B9"/>
<path d="M40.7207 95.8534C40.7541 95.8534 40.7875 95.8329 40.8054 95.7996C40.8209 95.7664 42.3509 92.4935 43.6936 89.2027C45.3213 85.2132 44.8078 82.0299 44.7462 81.6793C44.5254 80.4689 43.3137 73.6672 43.3137 73.6672L43.134 73.6979C43.134 73.6979 44.3457 80.4996 44.5665 81.71C44.6281 82.0555 45.1339 85.1902 43.5267 89.131C42.1866 92.4167 40.6565 95.6871 40.6411 95.7203C40.6206 95.7664 40.6386 95.8201 40.6848 95.8406C40.6951 95.8508 40.7079 95.8534 40.7207 95.8534Z" fill="#4373B9"/>
<path d="M54.7945 97.3555C54.8407 97.3555 54.8817 97.3223 54.8869 97.2736C54.892 97.2174 55.4568 91.7182 55.6545 88.7011C55.8522 85.6662 53.5468 80.492 53.5237 80.4383C53.5031 80.3922 53.4492 80.3717 53.403 80.3922C53.3568 80.4127 53.3363 80.4664 53.3568 80.5125C53.3799 80.5637 55.6673 85.6969 55.4722 88.6883C55.2745 91.7002 54.7097 97.1969 54.7046 97.2532C54.6995 97.3044 54.7354 97.3479 54.7868 97.353C54.7893 97.3555 54.7919 97.3555 54.7945 97.3555Z" fill="#4373B9"/>
<path d="M43.9349 77.869C43.9478 77.869 43.9606 77.8665 43.9735 77.8614C46.3045 76.8403 46.9335 74.6831 46.9386 74.6627C46.9515 74.6141 46.9232 74.5629 46.8745 74.5501C46.8257 74.5373 46.7743 74.5654 46.7615 74.6141C46.7564 74.6345 46.1479 76.7098 43.899 77.695C43.8528 77.7155 43.8323 77.7692 43.8528 77.8153C43.8682 77.8486 43.9016 77.869 43.9349 77.869Z" fill="#4373B9"/>
<path d="M60.8044 76.7483C60.8404 76.7483 60.8763 76.7278 60.8892 76.692C60.9071 76.6459 60.8866 76.5922 60.8404 76.5742C60.825 76.5666 59.2666 75.8961 58.6787 72.6514C58.671 72.6027 58.6223 72.5695 58.5735 72.5772C58.5247 72.5848 58.4913 72.6334 58.499 72.6821C59.1075 76.0369 60.7043 76.7124 60.7711 76.7406C60.7813 76.7457 60.7942 76.7483 60.8044 76.7483Z" fill="#4373B9"/>
<path d="M54.0192 51.0614C54.0192 51.0614 48.2428 51.2533 47.0388 51.6193C45.8347 51.9852 47.6241 55.2223 50.2864 54.6132C52.9486 54.0016 53.9036 52.0799 54.0192 51.0614Z" fill="#B37F2C"/>
<path d="M65.1328 51.3224C68.0595 48.9272 70.6473 44.7357 70.6473 44.7357C70.6473 44.7357 71.4021 42.2995 72.1183 41.9925C72.832 41.6854 72.619 43.3589 72.619 43.3589C72.619 43.3589 72.8218 42.9239 73.1042 42.3814C73.497 44.1573 75.4994 43.4152 75.6406 45.2705C74.7986 46.596 70.4548 54.2371 65.5641 58.3954C65.5282 58.4261 65.4897 58.4568 65.4537 58.4875C65.8055 56.1537 65.6129 53.7099 65.1328 51.3224Z" fill="#FAC0B9"/>
<path d="M47.9065 58.8739C48.0297 57.5202 48.1838 56.1639 48.4662 54.8333C48.6279 54.0809 48.823 53.3363 49.0387 52.5967C51.5058 53.6178 63.9339 52.1796 63.9339 52.1796C64.3344 51.9365 64.7349 51.6448 65.1303 51.3224C65.6129 53.7099 65.8055 56.1537 65.4512 58.4849C60.5888 62.5588 55.1796 63.2087 47.9039 61.6299L47.6832 61.9625C47.7422 60.9313 47.8115 59.9026 47.9065 58.8739Z" fill="#F2B1A9"/>
<path d="M47.6267 50.7415L47.4059 48.4487L53.0975 48.2875L53.4929 51.2303C53.4929 51.2303 54.2425 51.3147 54.9203 51.4017C52.4891 51.6986 49.9783 51.4734 47.6267 50.7415Z" fill="#F2B0A9"/>
<path d="M45.2725 52.0978L47.7165 51.691L47.6241 50.7416C49.9757 51.4734 52.4865 51.6986 54.9177 51.4018C55.4799 51.476 55.9934 51.5528 55.9959 51.5886C55.9959 51.5886 56.7944 51.7063 57.8187 52.1081C57.8392 52.2488 57.8649 52.3895 57.8854 52.5303C57.8854 52.5328 57.8854 52.5354 57.8854 52.5405C57.8829 52.6762 57.8777 52.8118 57.8726 52.9474C57.5722 52.8885 57.2462 53.0498 57.2616 53.4566C57.2975 54.5212 57.4593 55.5754 57.7365 56.6041C57.7545 56.6707 57.7751 56.7347 57.7956 56.7986C57.8572 57.3846 57.8854 57.9757 57.9163 58.5669C58.0035 60.2814 58.0985 62.0087 58.5812 63.6669C58.6582 63.9304 58.879 64.0482 59.0998 64.0507L59.1691 64.5676C59.1691 64.5779 59.1691 64.5907 59.1691 64.6009C59.1691 64.6649 59.1793 64.7237 59.1973 64.7749L60.1549 72.0065C60.1549 72.0065 53.2336 76.3593 42.3278 72.659L42.3561 60.8878L42.256 54.3241C43.6294 52.6992 45.2725 52.0978 45.2725 52.0978Z" fill="#FAC0B9"/>
<path d="M39.3575 58.3826C39.6707 57.2387 40.2021 55.8927 41.1726 54.6004C41.1751 54.5979 41.1751 54.5953 41.1777 54.5928C52.9204 58.5822 57.9573 53.2672 59.2589 51.4811C59.4027 51.5041 59.5413 51.5297 59.6748 51.5553C60.2088 51.6628 61.7415 51.8547 62.4526 52.0031C60.997 54.4213 54.7842 62.6023 39.3575 58.3826Z" fill="#FFC043"/>
<path d="M39.7272 62.2465C39.2754 62.0137 38.9313 61.6913 38.7876 61.2383C38.9185 60.9875 38.9545 59.8514 39.3575 58.38C54.7816 62.5997 60.9944 54.4187 62.4526 52.0005C62.6657 52.044 62.8069 52.0849 62.8249 52.1182C62.8249 52.1182 63.2664 56.0846 62.7864 59.0606C59.2435 60.9594 51.973 63.5107 39.7272 62.2465Z" fill="#FFEB5C"/>
<path d="M41.1777 54.5928C42.7258 52.5302 45.1955 51.609 46.2814 51.586C46.7512 51.5758 47.0362 51.6193 47.0362 51.6193C51.4827 55.45 54.0166 51.0614 54.0166 51.0614C54.0166 51.0614 57.2077 51.1433 59.2564 51.4811C57.9599 53.2672 52.9204 58.5822 41.1777 54.5928Z" fill="#FFEB5C"/>
<path d="M59.5413 65.8521C59.7416 67.2058 59.9649 68.6823 60.1523 69.9081C56.1756 70.5248 49.4443 71.1108 42.2123 69.7622C42.256 68.3727 42.3073 66.8092 42.3509 65.4888C50.0014 66.3844 56.2552 66.1208 59.5413 65.8521Z" fill="#FFEB5C"/>
<path d="M60.1523 69.9106C60.3911 71.4767 60.5734 72.641 60.5734 72.641C53.421 77.0194 42.0377 74.4502 42.0917 73.4036C42.1019 73.2245 42.1507 71.6558 42.2123 69.7622C49.4443 71.1133 56.1782 70.5248 60.1523 69.9106Z" fill="#0E97E2"/>
<path d="M42.3509 65.4888C42.3895 64.3091 42.4254 63.3188 42.4459 62.8249C41.5166 62.7686 40.4717 62.6304 39.7272 62.2491C51.973 63.5133 59.2435 60.962 62.7889 59.0658C62.6939 59.6518 62.5656 60.202 62.3884 60.6754C62.1522 61.3074 60.0856 61.3305 58.9945 61.8551C59.015 62.2261 59.2564 63.9176 59.5439 65.8573C56.2552 66.1208 50.0014 66.3844 42.3509 65.4888Z" fill="#FFC043"/>
<path d="M54.6225 51.1151C54.6225 51.1151 53.8266 53.5052 50.9282 53.738C48.022 53.9709 46.5818 51.806 46.5818 51.806" stroke="#C7982F" stroke-width="0.1" stroke-miterlimit="10" stroke-linecap="round" stroke-linejoin="round"/>
<path d="M58.5016 58.5668L59.3847 64.785" stroke="#C7982F" stroke-width="0.1" stroke-miterlimit="10" stroke-linecap="round" stroke-linejoin="round"/>
<path d="M62.3653 52.1925C62.3653 52.1925 62.8274 56.5888 61.8134 60.4938" stroke="#C7982F" stroke-width="0.1" stroke-miterlimit="10" stroke-linecap="round" stroke-linejoin="round"/>
<path d="M58.2372 57.5535C58.2372 57.5535 57.5979 53.5641 57.1332 52.8758C56.6686 52.1874 55.0358 51.2303 55.0358 51.2303" stroke="#C7982F" stroke-width="0.1" stroke-miterlimit="10" stroke-linecap="round" stroke-linejoin="round"/>
<path d="M60.2627 72.288C60.2627 72.288 52.1374 76.4386 42.4973 73.1964" stroke="#4373B9" stroke-width="0.4261" stroke-miterlimit="10" stroke-linecap="round" stroke-linejoin="round"/>
<path d="M53.5211 71.3463C50.7818 70.4122 48.1838 69.0688 45.8399 67.3748" stroke="#36394E" stroke-width="0.4261" stroke-miterlimit="10" stroke-linecap="round" stroke-linejoin="round"/>
<path d="M45.9374 66.8042C48.1555 68.4777 53.5647 70.205 53.5647 70.205C53.5647 70.205 56.1936 69.6856 56.648 70.2383C57.1024 70.791 55.5621 71.0264 55.5621 71.0264C55.5621 71.0264 58.9765 71.5536 58.7994 72.1114C58.6222 72.6693 55.9959 72.2061 55.9959 72.2061C55.9959 72.2061 59.1562 73.1555 58.707 73.8234C58.4271 74.2072 55.8342 73.1197 55.8342 73.1197C55.8342 73.1197 58.3553 74.3889 58.0831 74.8137C57.811 75.2385 55.444 73.9155 55.444 73.9155C55.444 73.9155 57.3155 75.1489 57.0049 75.566C56.6942 75.9831 53.86 74.4529 52.5686 73.6545C52.5686 73.6545 46.5612 73.3193 42.677 70.3739C40.9312 69.0509 40.0173 66.9603 39.5347 65.1562C41.0237 65.0001 42.4921 64.5369 43.8245 63.7462C44.1891 64.7263 44.8771 66.0032 45.9374 66.8042Z" fill="#FAC0B9"/>
<path d="M43.4934 62.5562C43.5165 62.7916 43.6243 63.2267 43.8194 63.7461C42.487 64.5343 41.0211 65 39.5295 65.1561C39.0161 63.2343 38.9955 61.6324 38.993 61.6273C40.0609 62.7072 42.6256 63.0092 43.4934 62.5562Z" fill="#F2B0A9"/>
<path d="M43.5345 62.3669C43.5345 62.3669 40.8876 62.807 39.052 61.3101" stroke="#C7982F" stroke-width="0.1" stroke-miterlimit="10" stroke-linecap="round" stroke-linejoin="round"/>
<path d="M46.3302 52.1183C46.3302 52.1183 44.7667 54.7515 44.2815 56.6476C43.7963 58.5438 43.4934 62.5588 43.4934 62.5588" stroke="#C7982F" stroke-width="0.1" stroke-miterlimit="10" stroke-linecap="round" stroke-linejoin="round"/>
<path d="M50.8563 82.1271C50.8717 82.1271 50.8871 82.1246 50.9025 82.1144C51.6804 81.6819 52.4172 81.1726 53.0949 80.5969C53.1334 80.5636 53.1386 80.5073 53.1052 80.4689C53.0718 80.4306 53.0153 80.4254 52.9768 80.4587C52.3094 81.0268 51.5802 81.5283 50.8152 81.9557C50.7716 81.9813 50.7562 82.035 50.7793 82.0785C50.7921 82.1118 50.8229 82.1271 50.8563 82.1271Z" fill="#4373B9"/>
<path d="M112.689 17.6568C107.123 20.9425 100.451 23.3198 93.9324 22.7875C89.8427 22.4548 85.7531 21.3826 81.6352 21.9738C79.4171 22.2911 77.3838 23.2251 75.6458 24.6223C74.0772 25.8838 73.1145 27.5625 72.4701 29.4485C70.4342 35.4134 71.9181 45.0146 76.5649 51.6807C76.742 51.9366 76.2748 52.2385 76.0925 51.9878C71.9438 46.3299 70.9117 39.5666 71.0504 34.94C71.1608 31.296 72.085 27.1812 74.891 24.6325C81.6737 18.468 90.5128 23.1841 98.4456 22.2706C103.316 21.7102 108.265 19.7065 112.473 17.2218C112.74 17.0657 112.958 17.4981 112.689 17.6568Z" fill="#58BC00"/>
<path d="M107.472 19.7449C107.472 19.7449 110.804 21.5464 108.679 22.4804C106.553 23.4119 107.472 19.7449 107.472 19.7449Z" fill="#7DD1FF"/>
<path d="M107.626 20.0904C107.626 20.0904 108.545 16.4234 106.42 17.3574C104.291 18.2888 107.626 20.0904 107.626 20.0904Z" fill="#7DD1FF"/>
<path d="M102.679 21.4645C102.679 21.4645 105.88 23.4886 103.696 24.2742C101.511 25.0598 102.679 21.4645 102.679 21.4645Z" fill="#FFA4C9"/>
<path d="M102.807 21.8202C102.807 21.8202 103.976 18.2248 101.791 19.0104C99.606 19.796 102.807 21.8202 102.807 21.8202Z" fill="#FFA4C9"/>
<path d="M97.7011 22.3013C97.7011 22.3013 100.523 24.827 98.2351 25.239C95.9503 25.6535 97.7011 22.3013 97.7011 22.3013Z" fill="#A3D800"/>
<path d="M97.7704 22.6749C97.7704 22.6749 99.5213 19.3227 97.2365 19.7347C94.949 20.1492 97.7704 22.6749 97.7704 22.6749Z" fill="#A3D800"/>
<path d="M92.8721 22.309C92.8721 22.309 95.2135 25.2825 92.8901 25.2953C90.5667 25.3106 92.8721 22.309 92.8721 22.309Z" fill="#FFEC00"/>
<path d="M92.8747 22.6877C92.8747 22.6877 95.1801 19.686 92.8567 19.7014C90.5333 19.7141 92.8747 22.6877 92.8747 22.6877Z" fill="#FFEC00"/>
<path d="M88.0457 21.6462C88.0457 21.6462 90.2535 24.7195 87.9327 24.6325C85.6119 24.543 88.0457 21.6462 88.0457 21.6462Z" fill="#7DD1FF"/>
<path d="M88.0303 22.025C88.0303 22.025 90.464 19.1257 88.1432 19.0387C85.8224 18.9517 88.0303 22.025 88.0303 22.025Z" fill="#7DD1FF"/>
<path d="M83.6248 21.3289C83.6248 21.3289 86.133 24.1616 83.8148 24.31C81.4991 24.4585 83.6248 21.3289 83.6248 21.3289Z" fill="#FFA4C9"/>
<path d="M83.6479 21.7076C83.6479 21.7076 85.7762 18.578 83.458 18.7264C81.1397 18.8748 83.6479 21.7076 83.6479 21.7076Z" fill="#FFA4C9"/>
<path d="M79.0808 21.9686C79.0808 21.9686 82.3797 23.8315 80.2386 24.7246C78.0949 25.6177 79.0808 21.9686 79.0808 21.9686Z" fill="#58BC00"/>
<path d="M79.2271 22.3192C79.2271 22.3192 80.2129 18.6702 78.0693 19.5632C75.9282 20.4563 79.2271 22.3192 79.2271 22.3192Z" fill="#58BC00"/>
<path d="M75.2889 24.2819C75.2889 24.2819 79.0551 24.7143 77.4326 26.37C75.8075 28.0256 75.2889 24.2819 75.2889 24.2819Z" fill="#FFEC00"/>
<path d="M75.5611 24.5455C75.5611 24.5455 75.0425 20.8017 73.4174 22.4574C71.7949 24.113 75.5611 24.5455 75.5611 24.5455Z" fill="#FFEC00"/>
<path d="M72.7807 27.4115C72.7807 27.4115 76.552 27.02 75.3274 28.9853C74.1054 30.9557 72.7807 27.4115 72.7807 27.4115Z" fill="#7DD1FF"/>
<path d="M73.1042 27.6111C73.1042 27.6111 71.782 24.0696 70.5575 26.0374C69.3329 28.0052 73.1042 27.6111 73.1042 27.6111Z" fill="#7DD1FF"/>
<path d="M71.5381 32.1813C71.5381 32.1813 74.8345 30.3159 74.5033 32.6061C74.1722 34.8989 71.5381 32.1813 71.5381 32.1813Z" fill="#58BC00"/>
<path d="M71.913 32.2351C71.913 32.2351 69.2764 29.5175 68.9452 31.8103C68.6166 34.1006 71.913 32.2351 71.913 32.2351Z" fill="#58BC00"/>
<path d="M71.0914 36.6954C71.0914 36.6954 74.0361 34.313 74.0874 36.6289C74.1388 38.9447 71.0914 36.6954 71.0914 36.6954Z" fill="#FFEC00"/>
<path d="M71.4714 36.6878C71.4714 36.6878 68.4215 34.441 68.4754 36.7543C68.5268 39.0701 71.4714 36.6878 71.4714 36.6878Z" fill="#FFEC00"/>
<path d="M122.301 0L109.128 19.1743L127.363 10.0209L122.301 0Z" fill="#FFE239"/>
<path d="M132.426 20.0418L137.396 4.98486L127.363 10.0209L132.426 20.0418Z" fill="#FFE239"/>
<path d="M122.301 0L137.396 4.98485L127.363 10.0209L122.301 0Z" fill="#58BC00"/>
<path d="M132.426 20.0417L109.128 19.1743L127.363 10.0209L132.426 20.0417Z" fill="#A3D800"/>
<path d="M111.195 17.9331L136.13 5.65015" stroke="#565656" stroke-miterlimit="10" stroke-linecap="round" stroke-linejoin="round"/>
<path d="M122.632 0.777954L131.874 19.0233" stroke="#565656" stroke-miterlimit="10" stroke-linecap="round" stroke-linejoin="round"/>
<path d="M75.4763 45.5801C75.4763 45.5801 74.8217 43.4715 73.1812 43.5304" stroke="#6C4820" stroke-width="0.5289" stroke-miterlimit="10" stroke-linecap="round"/>
<path d="M75.5713 45.424C75.1298 46.0689 72.9527 47.2102 72.7191 46.724C72.4855 46.2378 74.5367 44.9046 74.5367 44.9046C74.5367 44.9046 71.8206 46.2455 71.7025 45.5187C71.6486 45.0862 74.0695 44.1906 74.0695 44.1906C74.0695 44.1906 71.5792 44.9174 71.4945 44.4644C71.4098 44.0089 73.8282 43.4127 73.8282 43.4127C73.8282 43.4127 71.7974 43.7581 71.7435 43.2847C71.7153 43.0314 72.5086 42.6296 73.497 42.3993C74.4879 42.1716 75.9128 44.925 75.5713 45.424Z" fill="#FFCCC6"/>
<path d="M75.5713 45.424C75.1298 46.0688 72.9527 47.2101 72.7191 46.7239C72.4855 46.2377 74.5367 44.9045 74.5367 44.9045C74.5367 44.9045 71.8206 46.2454 71.7025 45.5187C71.6486 45.0862 74.0695 44.1906 74.0695 44.1906C74.0695 44.1906 71.5792 44.9173 71.4945 44.4644C71.4098 44.0089 73.8282 43.4126 73.8282 43.4126C73.8282 43.4126 71.7974 43.7581 71.7435 43.2847C71.7153 43.0314 72.5086 42.6296 73.497 42.3993" stroke="#F28883" stroke-width="0.1" stroke-miterlimit="10" stroke-linecap="round" stroke-linejoin="round"/>
<path d="M56.5916 42.8932L55.9805 39.5896C55.9805 39.5896 59.49 37.545 60.4014 40.6004C61.3153 43.6583 58.0908 44.6051 56.5916 42.8932Z" fill="#F2B0A9"/>
<path d="M57.6981 42.8164C57.7058 42.8138 57.716 42.8113 57.7237 42.8036C57.752 42.7831 57.7571 42.7422 57.734 42.714C57.7237 42.7013 56.6968 41.3732 57.5697 40.4289C57.8752 40.0962 58.2166 39.9248 58.5812 39.9145C59.2102 39.8992 59.7082 40.3803 59.7134 40.3854C59.739 40.411 59.7801 40.411 59.8032 40.3854C59.8289 40.3598 59.8289 40.3189 59.8032 40.2958C59.7827 40.2754 59.2615 39.7712 58.5786 39.7866C58.1781 39.7968 57.8059 39.9836 57.4747 40.3419C56.5274 41.3655 57.621 42.778 57.6313 42.7908C57.6467 42.8138 57.6724 42.8215 57.6981 42.8164Z" fill="#F2A59C"/>
<path d="M58.9329 41.2325C58.9509 41.2273 58.9688 41.2146 58.9765 41.1966C58.9894 41.1634 58.974 41.1275 58.9432 41.1122C58.9303 41.1071 57.7032 40.6004 57.1153 41.56C57.0973 41.5907 57.1076 41.6291 57.1358 41.647C57.1666 41.6649 57.2051 41.6547 57.2231 41.6265C57.752 40.7591 58.879 41.2248 58.8918 41.2299C58.9072 41.235 58.9201 41.235 58.9329 41.2325Z" fill="#F2A59C"/>
<path d="M55.2155 33.3458C55.2155 33.3458 57.1435 36.135 58.2372 40.6286C59.0921 44.1318 57.1204 48.2415 52.8947 49.5593C48.9231 50.7979 44.338 50.1939 41.7066 44.856C39.0751 39.5205 39.7606 34.5971 44.5922 32.1021C49.4238 29.6071 53.3157 30.101 55.2155 33.3458Z" fill="#FFCCC6"/>
<path d="M54.0987 44.6128C54.3863 45.1604 55.4543 45.1681 56.4837 44.6307C57.5132 44.0933 58.1114 43.213 57.8238 42.6654C57.5363 42.1178 56.4683 42.1101 55.4389 42.6475C54.4094 43.1849 53.8112 44.0651 54.0987 44.6128Z" fill="#C8685F"/>
<path d="M54.0987 44.6128C54.3863 45.1604 55.4543 45.1681 56.4837 44.6307C57.5132 44.0933 58.1114 43.213 57.8238 42.6654C57.5363 42.1178 56.4683 42.1101 55.4389 42.6475C54.4094 43.1849 53.8112 44.0651 54.0987 44.6128Z" fill="#FEC5BD"/>
<path d="M50.0553 45.8053C50.1118 46.422 49.2209 47.0054 48.0657 47.1129C46.9104 47.2204 45.9246 46.8058 45.8681 46.1917C45.8116 45.5749 46.7025 44.9915 47.8577 44.884C49.013 44.7766 49.9988 45.1911 50.0553 45.8053Z" fill="#F28670" fill-opacity="0.1"/>
<path d="M52.2298 43.6941C52.2067 43.7018 52.181 43.6941 52.163 43.6736C52.1399 43.6481 52.1425 43.6071 52.1682 43.5841C52.1733 43.5815 52.5969 43.2079 52.6842 42.7064C52.7535 42.3123 52.5456 41.8107 52.2503 41.6546C52.0732 41.5599 51.8832 41.606 51.7009 41.7826C51.6958 41.7877 51.6855 41.7979 51.6752 41.8107C51.0488 42.4709 50.6509 42.3763 50.425 42.1792C50.0117 41.8184 49.2132 38.2384 49.1234 37.8315C49.1157 37.7983 49.1388 37.7625 49.1722 37.7548C49.2055 37.7471 49.2415 37.7701 49.2492 37.8034C49.4905 38.8986 50.1862 41.7979 50.5097 42.082C50.7741 42.3148 51.1361 42.1946 51.5828 41.7237C51.5957 41.7084 51.6059 41.6981 51.6136 41.693C51.837 41.4781 52.086 41.4243 52.3119 41.5446C52.6559 41.7263 52.8896 42.2816 52.8125 42.7294C52.7176 43.277 52.2734 43.666 52.2554 43.6813C52.2452 43.689 52.2375 43.6916 52.2298 43.6941Z" fill="#F2A59C"/>
<path d="M58.3861 34.2106C57.5158 32.5217 56.0704 31.1399 54.358 30.3159C54.2861 29.689 53.7701 26.8025 50.407 28.1229C46.646 29.5994 45.8476 29.1158 43.6192 29.7811C41.9453 30.2801 40.7721 32.1021 40.2894 32.9823C40.1226 32.6983 39.93 32.4322 39.7067 32.1916C39.6245 32.1021 39.5038 32.0099 39.3935 32.0586C39.319 32.0918 39.2831 32.1814 39.2856 32.2607C39.2882 32.3426 39.3267 32.4194 39.3601 32.491C39.4987 32.7776 39.6348 33.0642 39.7734 33.3508C39.5244 33.118 39.0674 32.6625 38.8595 32.9337C38.5925 33.2817 39.1624 33.6554 39.6836 33.8601C39.5552 34.0085 39.4345 34.1595 39.3216 34.3104C38.3306 35.3647 37.6631 36.7235 37.4629 38.1566C37.2062 39.999 37.7222 41.9387 38.862 43.4127C39.0058 43.5969 39.1624 43.7735 39.3318 43.9398C39.5526 44.2776 39.7477 44.5104 39.8761 44.6102C41.9967 46.2301 43.2777 44.7791 43.2777 44.7791C43.2777 44.7791 44.6692 42.1383 43.8502 38.2615C43.8502 38.2615 51.398 39.1673 54.7457 34.2567C55.0409 34.899 55.5184 35.4952 55.7521 36.1682C55.9574 36.7594 56.7327 38.0184 57.0922 38.5327C57.3155 38.8526 57.6467 39.0189 58.0087 39.0522L58.9432 40.8639C59.6389 38.6914 59.4335 36.2425 58.3861 34.2106Z" fill="#B94C02"/>
<path d="M45.234 41.9771C45.234 41.9771 44.5768 41.4372 45.8938 40.6823C47.2133 39.9274 47.6908 40.063 47.9219 40.4085C48.1324 40.7232 47.8423 41.2171 47.0952 41.6265C46.1967 42.1153 45.5908 42.2893 45.234 41.9771Z" fill="#B94C02"/>
<path d="M48.5098 43.2437C48.6484 43.6557 48.4841 44.0805 48.1453 44.1931C47.8064 44.3057 47.4187 44.0626 47.2827 43.6506C47.144 43.2386 47.3083 42.8138 47.6472 42.7012C47.9835 42.5886 48.3712 42.8317 48.5098 43.2437Z" fill="#000100"/>
<path d="M55.7238 38.3485C55.7238 38.3485 55.8573 37.5091 54.3657 37.8162C52.8767 38.1233 52.6097 38.543 52.6636 38.9524C52.715 39.326 53.2592 39.5051 54.0936 39.3158C55.0948 39.0906 55.6622 38.8193 55.7238 38.3485Z" fill="#B94C02"/>
<path d="M53.7753 41.4935C53.9139 41.9055 54.299 42.1486 54.6379 42.036C54.9767 41.9234 55.141 41.4986 55.0024 41.0866C54.8638 40.6746 54.4787 40.4315 54.1398 40.5441C53.8009 40.6567 53.6392 41.0815 53.7753 41.4935Z" fill="#000100"/>
<path d="M45.2776 46.5217L43.9606 43.7785C43.9606 43.7785 40.2381 43.0979 40.8363 46.23C41.4344 49.3596 44.7334 48.7276 45.2776 46.5217Z" fill="#FFCCC6"/>
<path d="M44.261 46.9593C44.2533 46.9619 44.243 46.9619 44.2327 46.9593C44.1968 46.9516 44.1763 46.9184 44.1814 46.8851C44.184 46.8672 44.4869 45.2192 43.2752 44.7816C42.849 44.6281 42.469 44.6281 42.1404 44.7867C41.5731 45.0606 41.3523 45.7182 41.3497 45.7233C41.3394 45.7566 41.3035 45.7745 41.2701 45.7643C41.2368 45.754 41.2188 45.7182 41.229 45.6849C41.2393 45.6568 41.4678 44.971 42.0839 44.6742C42.4459 44.5001 42.8593 44.495 43.3188 44.6614C44.6307 45.1373 44.3098 46.8928 44.3072 46.9107C44.3021 46.9337 44.2841 46.9516 44.261 46.9593Z" fill="#F2A59C"/>
<path d="M42.4331 46.1174C42.4151 46.1225 42.3946 46.1174 42.3766 46.1046C42.3484 46.0816 42.3458 46.0406 42.3689 46.015C42.3766 46.0048 43.2366 44.9914 44.1994 45.5774C44.2302 45.5954 44.2404 45.6363 44.2199 45.6644C44.2019 45.6951 44.1609 45.7028 44.1326 45.6849C43.2649 45.1552 42.4767 46.0841 42.4665 46.0943C42.4562 46.1071 42.4459 46.1123 42.4331 46.1174Z" fill="#F2A59C"/>
<path d="M53.344 44.8354C53.4004 44.623 53.4287 44.4158 53.385 44.2008C52.3042 44.8457 51.4159 44.6563 50.6894 44.426C50.6971 44.5795 50.7331 44.7203 50.7818 44.8661C51.7754 44.9864 52.3119 44.9403 53.344 44.8354Z" fill="#000100"/>
<path d="M50.7844 44.8662C51.0514 45.4854 51.5751 45.6773 52.2092 45.5724C52.7509 45.4829 53.1103 45.3344 53.344 44.8354C52.3119 44.9404 51.7754 44.9864 50.7844 44.8662Z" fill="#E55336"/>
</g>
<defs>
<clipPath id="clip0_402_9887">
<rect width="100" height="102" fill="white" transform="translate(37.3961)"/>
</clipPath>
</defs>
</svg>
