<svg width="450" height="168" viewBox="0 0 450 168" fill="none" xmlns="http://www.w3.org/2000/svg">
<mask id="mask0_528_37734" style="mask-type:alpha" maskUnits="userSpaceOnUse" x="4" y="6" width="390" height="162">
<rect x="4" y="6" width="390" height="162" fill="#D9D9D9"/>
</mask>
<g mask="url(#mask0_528_37734)">
<path opacity="0.85" d="M0.14736 66.3527C4.64104 68.9538 9.30952 71.4482 14.4171 72.5057C19.5247 73.5632 25.1951 73.0174 29.3818 69.9558C32.4942 67.6831 34.5747 64.1013 34.984 60.3148C35.3933 56.5284 34.1271 52.5969 31.5733 49.7315C38.7486 52.6524 46.1585 55.1553 53.9265 54.9933C61.6945 54.8313 69.6075 52.2302 75.0946 46.8319C80.5816 41.4337 83.225 33.0463 80.6968 25.8358C104.031 36.0695 132.532 36.9863 154.949 24.9361C162.751 20.7445 170.626 13.7686 169.961 5.06141C113.576 3.79926 58.0152 1.26642 1.63104 0C2.488 21.7466 -0.709594 44.6061 0.14736 66.3527Z" fill="#F2FEFF"/>
<path opacity="0.8" d="M209.037 4.49053C208.487 14.7696 214.061 25.1492 223.14 30.7503C229.546 34.6999 237.311 36.2886 244.944 36.4518C252.577 36.6151 260.166 35.4409 267.699 34.2729C265.39 57.8766 282.589 81.2605 306.652 87.4706C330.715 93.6871 358.556 81.4237 369.13 59.955C371.989 73.1226 382.876 83.8663 396.296 88.1111C409.716 92.3559 425.408 89.3042 436 80.3876C430.488 55.3712 427.691 28.9733 428.161 3.42306C355.403 -2.34756 281.901 -0.017961 209.037 4.49053Z" fill="#F2FEFF"/>
<path opacity="0.75" d="M190.856 57.0423C191.968 57.0423 193.048 57.1294 194.074 57.2724C194.79 52.0547 200.304 48 207.004 48C213.506 48 218.872 51.8246 219.848 56.8122C220.009 56.806 220.169 56.7935 220.336 56.7935C226.227 56.7935 231 60.1704 231 64.3308C231 64.3308 231 73 222.534 73C214.692 73 185.997 73 185.997 73C185.997 73 178 73.0373 178 65.2139C177.994 61.3271 183.755 57.0423 190.856 57.0423Z" fill="white"/>
<path opacity="0.35" d="M266.54 129.51C265.722 129.51 264.927 129.573 264.172 129.676C263.645 125.919 259.588 123 254.657 123C249.873 123 245.924 125.754 245.206 129.345C245.088 129.34 244.97 129.331 244.847 129.331C240.512 129.331 237 131.763 237 134.758C237 134.758 237 141 243.23 141C249 141 270.116 141 270.116 141C270.116 141 276 141.027 276 135.394C276 132.596 271.765 129.51 266.54 129.51Z" fill="white"/>
<path opacity="0.55" d="M299.829 125H371.204C374.925 125 377.951 121.942 377.998 118.138C378.109 109.358 372.657 100.276 364.389 97.8528C353.9 94.7791 342.127 100.325 335.943 109.503C329.48 102.393 316.902 102.63 310.697 109.976C310.118 110.663 308.755 112.469 308.755 112.469C308.755 112.469 306.787 111.378 305.892 111.013C302.361 109.567 298.056 110.352 295.235 112.952C295.209 112.979 295.177 113.006 295.151 113.033C290.651 117.289 293.693 125 299.829 125Z" fill="white"/>
<path opacity="0.45" d="M74.1009 147.776C74.5936 147.776 75.0763 147.811 75.5489 147.882C75.3528 147.086 75.2473 146.25 75.2473 145.394C75.2473 139.653 79.893 135 85.6247 135C90.552 135 94.6748 138.445 95.7357 143.057C96.7312 142.544 97.8524 142.247 99.049 142.247C102.704 142.247 105.716 144.961 106.209 148.481C107.355 148.028 108.602 147.776 109.904 147.776C115.48 147.776 120 152.303 120 157.888C120 163.473 115.48 168 109.904 168C104.328 168 79.6718 168 74.0959 168C68.52 168 64 163.473 64 157.888C64.005 152.303 68.5251 147.776 74.1009 147.776Z" fill="white"/>
</g>
<g clip-path="url(#clip0_528_37734)">
<path d="M100.566 43.6541C100.314 47.5053 100.067 51.3566 99.8153 55.2079C99.7557 56.1385 101.189 56.2352 101.253 55.3C101.505 51.4488 101.753 47.5975 102.004 43.7462C102.064 42.8156 100.63 42.7235 100.566 43.6541Z" fill="#FFEB5C"/>
<path d="M96.8017 101.7C96.5498 105.551 96.3024 109.402 96.0505 113.254C95.991 114.184 97.4245 114.281 97.4841 113.346C97.736 109.494 97.9833 105.643 98.2352 101.792C98.2993 100.866 96.8612 100.769 96.8017 101.7Z" fill="#FFEB5C"/>
<path d="M108.403 49.7765C107.674 51.9693 106.942 54.1575 106.209 56.3504C105.916 57.2349 107.276 57.7094 107.569 56.8249C108.297 54.632 109.03 52.4438 109.763 50.251C110.061 49.3665 108.7 48.892 108.403 49.7765Z" fill="#FFEB5C"/>
<path d="M90.4813 100.175C89.6981 102.363 88.9104 104.551 88.1272 106.739C87.8112 107.619 89.1714 108.089 89.4874 107.214C90.2706 105.026 91.0584 102.838 91.8415 100.649C92.1576 99.7694 90.7973 99.2995 90.4813 100.175Z" fill="#FFEB5C"/>
<path d="M118.369 49.6153C116.161 52.7709 113.954 55.9266 111.746 59.0822C111.21 59.847 112.406 60.6532 112.937 59.893C115.144 56.7374 117.352 53.5817 119.559 50.4261C120.1 49.6613 118.905 48.8551 118.369 49.6153Z" fill="#FFEB5C"/>
<path d="M85.0861 97.1897C82.8786 100.345 80.671 103.501 78.4635 106.657C77.9277 107.421 79.123 108.228 79.6543 107.468C81.8618 104.312 84.0694 101.156 86.2769 98.0005C86.8173 97.2358 85.622 96.4296 85.0861 97.1897Z" fill="#FFEB5C"/>
<path d="M121.877 58.9533C120.118 60.4413 118.359 61.9293 116.601 63.4173C115.891 64.0208 116.839 65.1034 117.549 64.5045C119.308 63.0165 121.066 61.5285 122.825 60.0405C123.539 59.4416 122.587 58.3544 121.877 58.9533Z" fill="#FFEB5C"/>
<path d="M80.4741 92.5828C78.6696 94.0386 76.8651 95.4943 75.0652 96.9501C74.3415 97.5351 75.2942 98.6223 76.0132 98.0373C77.8177 96.5815 79.6222 95.1258 81.4221 93.67C82.1504 93.0849 81.1977 91.9977 80.4741 92.5828Z" fill="#FFEB5C"/>
<path d="M130.606 64.3385C127.071 65.8449 123.539 67.3468 120.008 68.8532C119.152 69.2171 119.802 70.5116 120.654 70.1477C124.185 68.6413 127.721 67.1394 131.252 65.633C132.104 65.2691 131.458 63.9746 130.606 64.3385Z" fill="#FFEB5C"/>
<path d="M77.3506 87.0131C73.8194 88.5195 70.2837 90.0213 66.7526 91.5277C65.8961 91.8917 66.5419 93.1862 67.3983 92.8222C70.9295 91.3158 74.4652 89.814 77.9964 88.3076C78.8482 87.9436 78.2025 86.6491 77.3506 87.0131Z" fill="#FFEB5C"/>
<path d="M128.678 74.1189C126.402 74.446 124.13 74.7731 121.854 75.1001C120.938 75.2337 121.231 76.648 122.147 76.519C124.423 76.192 126.695 75.8649 128.971 75.5378C129.887 75.4042 129.59 73.9899 128.678 74.1189Z" fill="#FFEB5C"/>
<path d="M75.8575 80.6375C73.563 80.9139 71.2638 81.1903 68.9693 81.4667C68.0487 81.5773 68.3464 82.9962 69.2624 82.8856C71.557 82.6092 73.8561 82.3328 76.1506 82.0564C77.0712 81.9458 76.7735 80.5315 75.8575 80.6375Z" fill="#FFEB5C"/>
<path d="M133.359 82.8671C129.562 82.3143 125.765 81.7568 121.968 81.204C121.048 81.0704 120.961 82.517 121.877 82.6506C125.674 83.2034 129.47 83.7608 133.267 84.3136C134.183 84.4472 134.27 83.0007 133.359 82.8671Z" fill="#FFEB5C"/>
<path d="M76.1277 74.5104C72.3309 73.9576 68.5342 73.4001 64.7374 72.8473C63.8168 72.7137 63.7298 74.1603 64.6458 74.2893C68.4426 74.8421 72.2394 75.3995 76.0361 75.9523C76.9521 76.0905 77.0391 74.644 76.1277 74.5104Z" fill="#FFEB5C"/>
<path d="M126.677 90.2287C124.561 89.3212 122.449 88.4183 120.333 87.5107C119.477 87.1422 119.014 88.515 119.862 88.879C121.978 89.7865 124.089 90.6894 126.205 91.597C127.061 91.9609 127.524 90.5927 126.677 90.2287Z" fill="#FFEB5C"/>
<path d="M78.1383 68.282C76.0316 67.3238 73.9248 66.361 71.818 65.4028C70.9707 65.0158 70.5081 66.3886 71.3463 66.771C73.4531 67.7338 75.5598 68.692 77.6666 69.6502C78.5139 70.0326 78.9765 68.6598 78.1383 68.282Z" fill="#FFEB5C"/>
<path d="M127.089 98.9034C124.02 96.5862 120.952 94.2689 117.883 91.9517C117.137 91.3897 116.34 92.5921 117.077 93.1495C120.146 95.4667 123.214 97.7839 126.283 100.101C127.029 100.663 127.831 99.4608 127.089 98.9034Z" fill="#FFEB5C"/>
<path d="M80.8405 63.9747C77.7719 61.6575 74.7034 59.3402 71.6348 57.023C70.8883 56.461 70.0913 57.6634 70.8287 58.2208C73.8973 60.538 76.9659 62.8552 80.0344 65.1724C80.781 65.7391 81.5824 64.5321 80.8405 63.9747Z" fill="#FFEB5C"/>
<path d="M117.709 102.138C116.285 100.323 114.86 98.5074 113.436 96.697C112.859 95.9645 111.783 96.9227 112.355 97.6506C113.78 99.4657 115.204 101.281 116.628 103.091C117.201 103.828 118.282 102.87 117.709 102.138Z" fill="#FFEB5C"/>
<path d="M85.567 59.4785C84.1747 57.622 82.7824 55.7608 81.3947 53.9043C80.8359 53.158 79.7596 54.1162 80.3138 54.8579C81.7061 56.7144 83.0984 58.5756 84.4861 60.4321C85.0449 61.1784 86.1258 60.2156 85.567 59.4785Z" fill="#FFEB5C"/>
<path d="M113.367 110.227C111.842 106.684 110.312 103.146 108.787 99.6038C108.416 98.7469 107.134 99.3965 107.5 100.253C109.026 103.796 110.551 107.334 112.08 110.877C112.447 111.733 113.734 111.084 113.367 110.227Z" fill="#FFEB5C"/>
<path d="M90.3576 56.8572C88.8325 53.3146 87.3028 49.7765 85.7777 46.2339C85.4067 45.377 84.1243 46.0266 84.4907 46.8835C86.0159 50.4261 87.541 53.9641 89.0707 57.5067C89.4417 58.359 90.7286 57.714 90.3576 56.8572Z" fill="#FFEB5C"/>
<path d="M103.621 108.37C103.278 106.085 102.93 103.8 102.586 101.515C102.449 100.594 101.038 100.889 101.175 101.81C101.519 104.095 101.867 106.38 102.211 108.665C102.353 109.586 103.763 109.292 103.621 108.37Z" fill="#FFEB5C"/>
<path d="M96.678 55.3C96.3849 52.992 96.0872 50.6839 95.7941 48.3759C95.675 47.45 94.2689 47.7494 94.3834 48.6708C94.6765 50.9788 94.9742 53.2868 95.2674 55.5948C95.391 56.5208 96.7971 56.2213 96.678 55.3Z" fill="#FFEB5C"/>
<path d="M120.278 79.8911C119.069 92.5137 105.984 101.322 93.8476 98.6085C85.883 96.8257 79.5032 89.9616 77.9506 81.8812C76.3064 73.3356 80.5886 64.767 88.031 60.4873C91.7637 58.3405 96.1009 57.3639 100.388 57.6449C108.068 58.147 115.314 62.9058 118.575 69.9588C120.086 73.2435 120.59 76.6295 120.278 79.8911Z" fill="#FFEB5C"/>
<path d="M87.257 74.8699C87.3852 72.4881 90.8065 72.4881 90.9347 74.8699C90.9622 75.4181 91.8141 75.4227 91.7866 74.8699C91.7041 73.3404 90.6187 72.2486 89.0982 72.1657C87.5822 72.0827 86.4876 73.4648 86.4097 74.8699C86.3731 75.4227 87.2249 75.4181 87.257 74.8699Z" fill="black"/>
<path d="M111.082 74.8699C110.954 72.4881 107.532 72.4881 107.404 74.8699C107.377 75.4181 106.525 75.4227 106.552 74.8699C106.635 73.3404 107.72 72.2486 109.241 72.1657C110.757 72.0827 111.851 73.4648 111.929 74.8699C111.961 75.4227 111.109 75.4181 111.082 74.8699Z" fill="black"/>
<path d="M93.5087 77.7905C96.8429 80.4348 101.432 80.3796 104.794 77.8596C105.229 77.5326 104.803 76.7909 104.363 77.1226C101.304 79.4214 97.0627 79.5365 94.1086 77.1917C93.6827 76.8462 93.0781 77.4496 93.5087 77.7905Z" fill="black"/>
<path d="M85.622 77.7675C85.6723 78.6152 85.3746 79.4628 84.6006 80.0571C82.6542 81.5635 79.494 80.3427 79.494 77.7629C79.494 76.0446 80.8771 74.6533 82.5855 74.6533C84.2571 74.6533 85.5304 76.2104 85.622 77.7675Z" fill="#FFC043"/>
<path d="M118.373 77.7629C118.355 79.3753 117.182 80.8725 115.424 80.8725C113.715 80.8725 112.332 79.4812 112.332 77.7629C112.332 76.0446 113.715 74.6533 115.424 74.6533C116.564 74.6533 117.558 75.2614 118.053 76.2979C118.277 76.7724 118.378 77.2746 118.373 77.7629Z" fill="#FFC043"/>
</g>
<defs>
<clipPath id="clip0_528_37734">
<rect width="70" height="71" fill="white" transform="translate(64 43)"/>
</clipPath>
</defs>
</svg>
