<svg width="43" height="43" viewBox="0 0 43 43" fill="none" xmlns="http://www.w3.org/2000/svg">
<path d="M14.6558 13.5234L23.4566 15.0473L31.1064 21.3848L23.4566 27.7181L14.6558 29.2462L8.97811 21.3848L14.6558 13.5234Z" stroke="#FFAC30" stroke-width="2" stroke-miterlimit="10" stroke-linecap="round" stroke-linejoin="round"/>
<path d="M31.1064 21.3847L26.0845 21.5843L23.4566 15.0472L31.1064 21.3847Z" stroke="#FFAC30" stroke-width="2" stroke-miterlimit="10" stroke-linecap="round" stroke-linejoin="round"/>
<path d="M31.1064 21.3848L34.8028 13.812L28.0612 18.8591L31.1064 21.3848Z" stroke="#FFAC30" stroke-width="2" stroke-miterlimit="10" stroke-linecap="round" stroke-linejoin="round"/>
<path d="M31.1064 21.3849L34.8028 28.9534L28.0612 23.9063L31.1064 21.3849Z" stroke="#FFAC30" stroke-width="2" stroke-miterlimit="10" stroke-linecap="round" stroke-linejoin="round"/>
<path d="M14.6558 13.5234L22.677 3.84094L20.0445 14.4572L14.6558 13.5234Z" stroke="#FFAC30" stroke-width="2" stroke-miterlimit="10" stroke-linecap="round" stroke-linejoin="round"/>
<path d="M14.6558 29.2163L22.677 38.8945L20.0445 28.2825L14.6558 29.2163Z" stroke="#FFAC30" stroke-width="2" stroke-miterlimit="10" stroke-linecap="round" stroke-linejoin="round"/>
<path d="M8.97809 21.3849L14.6558 29.2166L23.4566 27.7181L26.0845 21.5844L8.97809 21.3849Z" stroke="#FFAC30" stroke-width="2" stroke-miterlimit="10" stroke-linecap="round" stroke-linejoin="round"/>
<path d="M20.0262 28.151L14.6374 29.0849L20.4252 29.7598L20.0262 28.151Z" stroke="#FFAC30" stroke-width="2" stroke-miterlimit="10" stroke-linecap="round" stroke-linejoin="round"/>
<path d="M31.1064 21.3849L28.0612 23.9063L28.9371 24.56L31.1064 21.3849Z" stroke="#FFAC30" stroke-width="2" stroke-miterlimit="10" stroke-linecap="round" stroke-linejoin="round"/>
<path d="M20.0445 14.4572L15.0273 13.587H20.2601L20.0445 14.4572Z" stroke="#FFAC30" stroke-width="2" stroke-miterlimit="10" stroke-linecap="round" stroke-linejoin="round"/>
<path d="M31.1064 21.3847L28.0612 18.8633C28.0612 18.8633 28.4418 18.5746 28.4785 18.5491C28.5152 18.5237 28.5152 18.5237 28.5152 18.5237L31.1064 21.3847Z" stroke="#FFAC30" stroke-width="2" stroke-miterlimit="10" stroke-linecap="round" stroke-linejoin="round"/>
</svg>
