<svg width="37" height="37" viewBox="0 0 37 37" fill="none" xmlns="http://www.w3.org/2000/svg">
<g clip-path="url(#clip0_396_5939)">
<path d="M3.95069 13.5618L7.21239 10.962C7.2605 10.9232 7.30861 10.9135 7.35672 10.8844C7.37596 10.8747 7.3952 10.8553 7.41445 10.8553L11.5902 9.59418C11.6479 9.57478 11.7057 9.56508 11.7634 9.56508C11.8885 9.56508 12.0135 9.60388 12.1194 9.68149L16.5068 12.8731L17.7191 10.6904L23.4728 0.310428C23.5787 0.116411 23.7807 0 24.002 0C24.0405 0 24.079 0 24.1175 0.00970089C24.3676 0.0582053 24.5697 0.261924 24.6082 0.523848L25.8301 9.08003L31.2951 5.10267C31.401 5.03476 31.5164 4.99596 31.6415 4.99596C31.7666 4.99596 31.8917 5.03476 31.9975 5.11237C32.2092 5.25788 32.3054 5.52951 32.2284 5.78173L27.7929 20.6241L33.6717 35.156C33.7775 35.4276 33.6909 35.7381 33.4504 35.8933C33.3445 35.9612 33.2291 36 33.1136 36C32.9597 36 32.8057 35.9418 32.6903 35.8254L24.7717 27.9095L11.1765 20.8569C11.1669 20.8569 11.1669 20.8472 11.1669 20.8472C11.0899 20.8084 11.0225 20.7405 10.9744 20.6726C10.9648 20.6532 10.9552 20.6435 10.9456 20.6241C10.9359 20.6047 10.9167 20.5853 10.9071 20.5562L9.20406 16.637L4.12388 14.6095C3.92182 14.5319 3.7775 14.3476 3.74864 14.1342C3.70053 13.9111 3.78712 13.6977 3.95069 13.5618ZM8.49206 15.0461L7.3471 12.4074L5.52862 13.8626L8.49206 15.0461ZM27.2348 22.477L25.8109 27.2304L31.4298 32.8472L27.2348 22.477ZM30.5447 7.15926L22.7416 12.8343L25.2336 24.9216L30.5447 7.15926ZM23.6556 2.48343L18.9603 10.9523L20.4613 12.9798L21.7217 12.0582L24.714 9.89491L23.6556 2.48343ZM19.4799 13.6977L18.3157 12.1261L17.4978 13.6006L18.5562 14.367L19.4799 13.6977ZM21.664 13.62L12.6005 20.2167L24.2714 26.27L21.664 13.62ZM11.6576 10.8553L8.42471 11.8254L11.7057 19.363L17.5363 15.1237L11.6576 10.8553Z" fill="#FFAC30" stroke="#FFAC30"/>
</g>
<defs>
<clipPath id="clip0_396_5939">
<rect width="30" height="36" fill="white" transform="matrix(-1 0 0 1 33.72 0)"/>
</clipPath>
</defs>
</svg>
