<svg width="41" height="41" viewBox="0 0 41 41" fill="none" xmlns="http://www.w3.org/2000/svg">
<path d="M20.8702 15.8126H19.3259V38.0771L20.8702 39.7269V15.8126Z" stroke="#FFAC30" stroke-width="2" stroke-miterlimit="10" stroke-linecap="round" stroke-linejoin="round"/>
<path d="M15.9361 9.09418L8.67792 13.2545L12.8383 20.5127L20.0965 16.3524L15.9361 9.09418Z" stroke="#FFAC30" stroke-width="2" stroke-miterlimit="10" stroke-linecap="round" stroke-linejoin="round"/>
<path d="M11.7766 1.83618L8.68246 13.2517L20.098 16.3514L11.7766 1.83618Z" stroke="#FFAC30" stroke-width="2" stroke-miterlimit="10" stroke-linecap="round" stroke-linejoin="round"/>
<path d="M27.356 12.1913L23.1957 4.93311L15.9375 9.09344L20.0978 16.3516L27.356 12.1913Z" stroke="#FFAC30" stroke-width="2" stroke-miterlimit="10" stroke-linecap="round" stroke-linejoin="round"/>
<path d="M34.6133 8.02999L23.1977 4.9303L20.098 16.3514L34.6133 8.02999Z" stroke="#FFAC30" stroke-width="2" stroke-miterlimit="10" stroke-linecap="round" stroke-linejoin="round"/>
<path d="M24.2558 23.6056L31.514 19.4453L27.3537 12.1871L20.0955 16.3474L24.2558 23.6056Z" stroke="#FFAC30" stroke-width="2" stroke-miterlimit="10" stroke-linecap="round" stroke-linejoin="round"/>
<path d="M28.4194 30.8664L31.5136 19.4453L20.098 16.3512L28.4194 30.8664Z" stroke="#FFAC30" stroke-width="2" stroke-miterlimit="10" stroke-linecap="round" stroke-linejoin="round"/>
<path d="M12.8443 20.5111L17.0046 27.7693L24.2628 23.609L20.1025 16.3507L12.8443 20.5111Z" stroke="#FFAC30" stroke-width="2" stroke-miterlimit="10" stroke-linecap="round" stroke-linejoin="round"/>
<path d="M5.58279 24.6726L16.9983 27.7667L20.098 16.3512L5.58279 24.6726Z" stroke="#FFAC30" stroke-width="2" stroke-miterlimit="10" stroke-linecap="round" stroke-linejoin="round"/>
<path d="M21.0146 16.418C21.0146 16.9069 20.6202 17.3013 20.1314 17.3013C19.6425 17.3013 19.2481 16.9069 19.2481 16.418C19.2481 15.9292 19.6425 15.5348 20.1314 15.5348C20.6202 15.5348 21.0146 15.9292 21.0146 16.418Z" fill="#FFAC30" stroke="#FFAC30" stroke-width="2" stroke-miterlimit="10" stroke-linecap="round" stroke-linejoin="round"/>
</svg>
