<svg width="33" height="33" viewBox="0 0 33 33" fill="none" xmlns="http://www.w3.org/2000/svg">
<g clip-path="url(#clip0_400_7330)">
<path d="M32.8742 20.7329C31.0948 16.1945 28.3807 11.9437 24.723 8.27702C21.0564 4.61035 16.8055 1.8963 12.2671 0.125873C11.3055 -0.251578 10.2271 0.25169 9.89459 1.23127L8.46567 5.52702C8.38478 5.76068 8.5106 6.01231 8.74426 6.09319C12.8243 7.51313 16.6528 9.84074 19.915 13.103C23.1683 16.3563 25.5049 20.1937 26.9248 24.2737C27.0057 24.5074 27.2483 24.6242 27.482 24.5523L31.7778 23.1234C32.7483 22.7819 33.2516 21.6945 32.8742 20.7329Z" fill="#FFAC30"/>
<path d="M24.777 24.9567C23.4649 21.2002 21.317 17.6773 18.3243 14.6847C15.3317 11.692 11.8088 9.54413 8.05228 8.23204C7.80963 8.14217 7.54901 8.27698 7.46813 8.51064L0.0988505 30.6275C-0.36847 32.0294 0.970583 33.3685 2.37254 32.9012L24.4894 25.5319C24.723 25.451 24.8578 25.1904 24.777 24.9567ZM6.96486 28.866C6.26388 29.567 5.12254 29.567 4.42156 28.866C3.72058 28.165 3.72058 27.0237 4.42156 26.3227C5.12254 25.6217 6.26388 25.6217 6.96486 26.3227C7.66584 27.0237 7.66584 28.165 6.96486 28.866ZM8.07924 22.036C8.5196 22.4763 8.5196 23.1863 8.07924 23.6267C7.86356 23.8423 7.57597 23.9592 7.28839 23.9592C7.00081 23.9592 6.71323 23.8513 6.49754 23.6267C5.18545 22.3146 5.18545 20.1757 6.49754 18.8636C6.9379 18.4232 7.64787 18.4232 8.08823 18.8636C8.52859 19.3039 8.52859 20.0139 8.08823 20.4543C7.63888 20.8856 7.63888 21.5956 8.07924 22.036ZM9.50816 13.6152C10.5596 12.5637 12.2671 12.5637 13.3186 13.6152C14.3701 14.6667 14.3701 16.3742 13.3186 17.4257C12.2671 18.4771 10.5596 18.4771 9.50816 17.4257C8.45669 16.3742 8.45669 14.6667 9.50816 13.6152ZM14.9093 26.0082C14.0286 26.8889 12.6087 26.8889 11.7279 26.0082C10.8472 25.1275 10.8472 23.7075 11.7279 22.8268C12.6087 21.9461 14.0286 21.9461 14.9093 22.8268C15.79 23.7075 15.79 25.1275 14.9093 26.0082ZM19.3848 23.0605H19.3578C18.7377 23.0425 18.2524 22.5302 18.2614 21.9101C18.2704 21.6136 18.1626 21.326 17.9559 21.1103C17.7492 20.8946 17.4706 20.7688 17.165 20.7598C16.5449 20.7418 16.0506 20.2296 16.0686 19.6095C16.0866 18.9894 16.6258 18.5311 17.2189 18.5131C18.1176 18.54 18.9534 18.9085 19.5735 19.5646C20.1936 20.2206 20.5171 21.0744 20.4992 21.9731C20.4902 22.5752 19.9869 23.0605 19.3848 23.0605Z" fill="#FFAC30"/>
</g>
<defs>
<clipPath id="clip0_400_7330">
<rect width="33" height="33" fill="white"/>
</clipPath>
</defs>
</svg>
