<svg width="42" height="42" viewBox="0 0 42 42" fill="none" xmlns="http://www.w3.org/2000/svg">
<g clip-path="url(#clip0_396_5940)">
<path d="M3.4212 14.7847L8.6526 9.15027L17.552 14.9675L12.0556 26.7139L6.44736 25.199L3.4212 14.7847Z" stroke="#FFAC30" stroke-width="2" stroke-miterlimit="10" stroke-linecap="round" stroke-linejoin="round"/>
<path d="M3.42122 14.7847L0.208496 16.0645L0.667455 19.7511L5.15631 20.7586L3.42122 14.7847Z" stroke="#FFAC30" stroke-width="2" stroke-miterlimit="10" stroke-linecap="round" stroke-linejoin="round"/>
<path d="M4.15255 13.9973L3.4212 11.5719H6.40257L4.15255 13.9973Z" stroke="#FFAC30" stroke-width="2" stroke-miterlimit="10" stroke-linecap="round" stroke-linejoin="round"/>
<path d="M17.5519 14.9675L16.9102 26.0721L13.1825 24.3072L17.5519 14.9675Z" stroke="#FFAC30" stroke-width="2" stroke-miterlimit="10" stroke-linecap="round" stroke-linejoin="round"/>
<path d="M17.552 14.9675H31.4924L23.2423 24.143L16.9102 26.0721L17.552 14.9675Z" stroke="#FFAC30" stroke-width="2" stroke-miterlimit="10" stroke-linecap="round" stroke-linejoin="round"/>
<path d="M31.4924 14.9675V27.6318H27.3655L23.2423 24.143L31.4924 14.9675Z" stroke="#FFAC30" stroke-width="2" stroke-miterlimit="10" stroke-linecap="round" stroke-linejoin="round"/>
<path d="M31.4924 27.6317V26.072L32.6491 26.1355L31.4924 27.6317Z" stroke="#FFAC30" stroke-width="2" stroke-miterlimit="10" stroke-linecap="round" stroke-linejoin="round"/>
<path d="M32.6491 26.1355L30.3506 32.8781L28.011 30.6467L27.3655 27.6318H31.4924L32.6491 26.1355Z" stroke="#FFAC30" stroke-width="2" stroke-miterlimit="10" stroke-linecap="round" stroke-linejoin="round"/>
<path d="M11.3578 30.6467L8.19363 32.8781H13.6974L11.3578 30.6467Z" stroke="#FFAC30" stroke-width="2" stroke-miterlimit="10" stroke-linecap="round" stroke-linejoin="round"/>
<path d="M28.0111 30.6467L24.8431 32.8781H30.3506L28.0111 30.6467Z" stroke="#FFAC30" stroke-width="2" stroke-miterlimit="10" stroke-linecap="round" stroke-linejoin="round"/>
<path d="M16.9102 26.0721L13.6974 32.8781L11.3579 30.6467L10.8653 26.393L12.0556 26.7139L13.1825 24.3071L16.9102 26.0721Z" stroke="#FFAC30" stroke-width="2" stroke-miterlimit="10" stroke-linecap="round" stroke-linejoin="round"/>
<path d="M31.4924 14.9675L34.4103 22.1766L31.4924 26.0721V14.9675Z" stroke="#FFAC30" stroke-width="2" stroke-miterlimit="10" stroke-linecap="round" stroke-linejoin="round"/>
<path d="M31.9365 16.0646L36.4626 14.9675L39.8582 15.5496L33.2238 19.2437L31.9365 16.0646Z" stroke="#FFAC30" stroke-width="2" stroke-miterlimit="10" stroke-linecap="round" stroke-linejoin="round"/>
<path d="M39.8582 15.5496L42 20.8145L36.9887 17.1055L39.8582 15.5496Z" stroke="#FFAC30" stroke-width="2" stroke-miterlimit="10" stroke-linecap="round" stroke-linejoin="round"/>
<path d="M9.36904 25.99L4.91003 28.9154L7.64141 29.8333L11.1564 28.9154L10.8653 26.393L9.36904 25.99Z" stroke="#FFAC30" stroke-width="2" stroke-miterlimit="10" stroke-linecap="round" stroke-linejoin="round"/>
<path d="M4.91003 28.9154L7.04439 32.8781L7.64141 29.8333L4.91003 28.9154Z" stroke="#FFAC30" stroke-width="2" stroke-miterlimit="10" stroke-linecap="round" stroke-linejoin="round"/>
</g>
<defs>
<clipPath id="clip0_396_5940">
<rect width="42" height="42" fill="white" transform="matrix(-1 0 0 1 42 0)"/>
</clipPath>
</defs>
</svg>
